<svg version="1.1" id="Layer_1" xmlns="http://www.w3.org/2000/svg" xmlns:xlink="http://www.w3.org/1999/xlink" x="0px" y="0px"
	 width="100%" viewBox="0 0 1292 516"  xml:space="preserve">
<path fill="#D04667" opacity="1.000000" stroke="none"
	d="
M252.764374,248.812073
	C252.857712,247.160187 252.951050,245.508286 253.100662,242.860504
	C242.671539,257.563110 227.917130,262.867950 211.991089,265.430237
	C198.624939,267.580719 185.425797,266.645752 173.095367,260.152710
	C158.210007,252.314270 154.691345,236.371490 164.963135,223.140396
	C176.495605,208.285461 176.018082,182.532654 163.934006,168.023666
	C158.805695,161.866211 152.254303,159.560669 144.382370,160.815979
	C135.022812,162.308533 130.602020,159.261703 128.710815,150.021164
	C126.918259,141.262558 129.505661,133.168442 132.817627,125.306587
	C145.773499,94.552284 169.236282,75.675766 201.008789,67.474609
	C228.303223,60.429344 256.178925,58.495544 284.197632,63.091530
	C295.947327,65.018867 307.083313,68.792358 316.793182,76.073616
	C320.211090,78.636642 323.750549,80.921989 320.548767,86.295593
	C321.342255,86.800087 322.135773,87.304581 322.929291,87.809074
	C323.694214,86.196487 324.143066,84.308784 325.271423,83.012573
	C342.365295,63.375931 364.235016,51.686665 389.093384,45.136784
	C390.764313,44.696510 392.759064,45.485229 394.603210,45.702347
	C394.322540,47.564819 394.637085,49.847492 393.666260,51.222786
	C386.400543,61.515312 379.587250,72.260567 371.226044,81.605911
	C364.024139,89.655472 353.937103,93.846161 342.982635,95.231262
	C341.577667,95.408905 340.210297,95.883926 338.938354,96.824051
	C343.383118,96.824051 347.827911,96.824051 353.065674,96.824051
	C349.260284,104.164810 344.024445,108.804047 335.436951,110.584503
	C343.310181,112.139511 349.155884,109.869606 355.008423,105.090210
	C362.188446,102.981407 368.655365,101.002907 375.122284,99.024399
	C367.519165,110.090080 357.046936,117.764458 345.291962,123.764603
	C342.240387,125.322235 340.817993,126.969727 340.894012,130.496262
	C340.989197,134.911621 340.400299,139.341705 340.718994,143.775253
	C341.556702,143.524567 341.782043,143.264069 342.007385,143.003571
	C342.007416,143.003586 342.000000,143.000076 342.428162,143.036545
	C344.327148,142.852142 345.812286,142.700333 347.266449,142.399139
	C356.356384,140.516220 365.349304,140.112930 374.089020,144.008362
	C368.526886,150.532761 361.530884,154.705353 353.264648,156.892548
	C350.067719,157.738419 346.946747,158.871231 343.083008,160.020172
	C341.661774,160.705124 340.948730,161.243210 339.141266,162.607147
	C342.325104,162.773758 344.257477,162.715134 346.137451,163.001175
	C353.856110,164.175629 361.567902,165.433945 366.983704,171.980286
	C358.801239,178.502548 349.036346,180.214767 338.898926,181.072998
	C337.626343,187.443314 336.717773,193.833481 335.052429,200.019913
	C326.234833,232.776108 300.242889,255.063995 266.551849,259.161957
	C263.960602,259.477142 261.444336,260.506439 258.926971,261.309509
	C254.819366,262.619873 250.739578,264.017365 246.382599,265.115112
	C250.015701,260.202850 253.679062,255.456055 252.764374,248.812073
M327.002197,143.289627
	C326.913605,142.984360 326.895538,142.619522 326.708160,142.397675
	C326.606354,142.277130 326.096252,142.291885 325.974091,142.428223
	C320.518219,148.516052 314.003571,151.467896 305.444214,149.577087
	C318.116089,139.522247 320.737885,134.297531 317.448456,126.016800
	C313.684967,137.542923 305.554413,143.176895 294.747894,141.746887
	C277.333588,139.442490 262.175232,147.298828 254.524582,163.041138
	C247.215088,178.081543 245.848099,194.296143 246.233597,210.707535
	C246.260483,211.851608 248.636414,213.877380 249.953003,213.904739
	C259.718048,214.107697 269.618011,214.878143 279.234650,213.623550
	C296.627197,211.354507 308.832642,199.463715 311.495117,182.892197
	C312.537048,176.407150 311.762695,169.630310 312.608673,162.942429
	C314.961151,162.184692 317.440918,161.688538 319.641144,160.617905
	C325.211212,157.907501 328.696930,149.726501 327.002197,143.289627
M204.626175,239.037735
	C202.463623,241.875198 200.301071,244.712662 198.138519,247.550110
	C202.607849,247.138184 206.109955,246.251068 209.170486,244.563248
	C210.716309,243.710739 211.462799,241.408859 212.570724,239.762329
	C210.730438,239.149475 208.911682,238.450836 207.035751,237.980026
	C206.523453,237.851440 205.839355,238.407364 204.626175,239.037735
M172.708176,240.902344
	C173.675034,242.628616 174.231491,245.011353 175.702606,245.931030
	C178.051392,247.399445 181.008118,247.895416 183.907486,248.869629
	C182.063690,241.786545 179.102890,239.507004 172.708176,240.902344
M320.226471,87.474068
	C320.440887,87.487793 320.655334,87.501518 320.869751,87.515244
	C320.770538,87.384453 320.671295,87.253662 320.226471,87.474068
z"/>
<path fill="#FFFFFF" opacity="1.000000" stroke="none"
	d="
M961.919312,397.075409
	C961.919312,420.872284 961.919312,444.669189 961.919312,468.732422
	C945.341125,468.732422 928.939392,468.732422 912.268433,468.732422
	C912.268433,370.359741 912.268433,271.977417 912.268433,173.297729
	C928.597412,173.297729 944.999634,173.297729 961.544312,173.297729
	C961.544312,179.020370 961.544312,184.834030 961.544312,187.882767
	C964.175537,185.731384 968.522705,182.181610 972.864929,178.625793
	C986.877258,167.151352 1010.634827,168.601181 1023.762451,181.141678
	C1037.770630,194.523254 1044.208984,211.648315 1047.768066,229.820175
	C1050.576782,244.162064 1051.673462,258.877716 1052.887695,273.480804
	C1053.791382,284.348938 1054.415527,295.341949 1053.844482,306.209991
	C1052.634888,329.229279 1050.828247,352.224884 1043.052856,374.268555
	C1038.640015,386.779236 1032.414429,398.180023 1021.862915,406.331024
	C1017.215942,409.920837 1011.230225,412.352448 1005.472656,413.805511
	C994.701477,416.523804 984.123474,414.682098 974.971008,408.266205
	C970.513855,405.141724 967.047729,400.603485 962.661926,396.223755
	C962.028259,395.201538 961.865662,394.660767 961.703064,394.119995
	C961.410339,394.223877 961.117554,394.327789 960.824829,394.431671
	C961.189636,395.312927 961.554443,396.194183 961.919312,397.075409
M961.000000,298.493835
	C961.332886,304.075287 961.468079,309.677063 962.039673,315.233978
	C963.238831,326.892700 963.962219,338.669281 966.258362,350.121277
	C967.703979,357.330872 971.086548,364.344177 974.639648,370.880432
	C977.670105,376.455292 985.457397,376.615692 988.636108,371.663116
	C991.129211,367.778748 993.362549,363.600555 994.926392,359.269440
	C1000.901794,342.720093 1002.115540,325.288483 1002.826538,307.973633
	C1003.637939,288.215088 1003.175720,268.426331 1000.105652,248.757843
	C998.505371,238.505768 996.539734,228.478058 991.649963,219.248627
	C989.624023,215.424698 987.497559,211.472565 982.444702,211.017593
	C976.778870,210.507416 974.759705,215.098282 972.072510,218.685440
	C971.601318,219.314499 971.359680,220.115997 971.014648,220.839066
	C964.989197,233.466354 963.466797,247.186417 962.173279,260.783417
	C961.016052,272.947998 961.333313,285.252838 961.000000,298.493835
z"/>
<path fill="#FFFFFF" opacity="1.000000" stroke="none"
	d="
M671.839111,117.016228
	C680.174438,120.856873 688.692627,123.799301 695.884705,128.691376
	C710.015869,138.303406 719.337219,151.893555 723.965210,168.445007
	C727.736511,181.932785 728.786316,195.542480 727.199768,209.620117
	C725.530212,224.434982 720.838806,237.743286 712.540710,250.019394
	C701.736938,266.002167 686.461426,275.388519 668.140381,279.857941
	C659.497070,281.966461 650.487793,282.574646 641.154175,283.934021
	C641.154175,325.968109 641.154175,368.707031 641.154175,411.721924
	C625.026733,411.721924 609.289062,411.721924 593.275146,411.721924
	C593.275146,312.359009 593.275146,212.962402 593.275146,113.000610
	C596.473083,113.000610 599.745483,113.000618 603.017883,113.000618
	C618.349365,113.000618 633.697388,112.579567 649.005249,113.180511
	C656.516052,113.475365 663.952454,115.666428 671.839111,117.016228
M665.011780,233.479965
	C667.339844,229.843582 670.281067,226.455612 671.874756,222.521729
	C675.781738,212.877548 677.046814,202.849228 676.194641,192.297470
	C675.475525,183.392654 673.472473,175.224365 669.101196,167.476822
	C663.002319,156.667236 651.932251,150.622513 641.222595,152.578857
	C641.222595,182.613998 641.222595,212.649139 641.222595,242.663177
	C651.015320,243.543259 657.318542,241.168671 665.011780,233.479965
z"/>
<path fill="#FFFFFF" opacity="1.000000" stroke="none"
	d="
M741.000610,317.896851
	C740.667236,306.837219 739.778076,296.235138 740.115051,285.672150
	C740.841431,262.899414 743.024292,240.289368 750.984192,218.644775
	C757.324524,201.404175 766.573059,186.235977 783.325684,177.481628
	C789.697632,174.151871 797.135315,172.136520 804.303589,171.226578
	C814.871521,169.885071 825.587402,170.880585 835.241333,176.080002
	C848.778259,183.370682 858.457947,194.517914 863.843384,208.749985
	C868.253784,220.405563 871.593201,232.512421 874.674744,244.605911
	C876.270569,250.868408 876.762756,257.525909 876.900757,264.023071
	C877.214050,278.764465 876.999451,293.517029 876.999451,308.721008
	C848.881226,308.721008 819.818420,308.721008 790.484070,308.721008
	C791.010010,316.610535 791.200256,324.067505 792.066895,331.445007
	C793.570496,344.244019 794.991333,357.149933 802.010986,368.470184
	C808.198120,378.447937 815.103638,374.407013 819.194763,367.432678
	C824.304077,358.722656 825.760986,349.068024 827.405334,339.196747
	C843.096863,339.196747 858.863342,339.196747 875.765442,339.196747
	C873.777527,346.823914 872.245850,354.170837 869.933594,361.263306
	C865.287903,375.512939 858.833130,388.857971 847.933411,399.523926
	C839.356628,407.916840 829.178955,412.678009 817.057007,414.172272
	C805.692749,415.573151 795.281128,413.532501 785.043579,409.019226
	C772.148254,403.334290 763.584656,393.100342 757.149658,381.207764
	C749.192871,366.502441 744.856445,350.505463 742.985229,333.865662
	C742.403442,328.692169 741.666443,323.536133 741.000610,317.896851
M797.030212,226.764862
	C792.937317,242.874115 790.430542,259.157471 791.101746,275.693176
	C804.372925,275.693176 817.101013,275.693176 830.655823,275.693176
	C829.748352,265.206421 828.977173,255.084778 827.941895,244.990234
	C827.582092,241.481964 826.970398,237.893982 825.767944,234.600113
	C823.422791,228.176559 821.055725,221.676620 817.808716,215.690552
	C814.589539,209.755920 808.863342,209.165161 804.543640,214.196762
	C801.585022,217.643082 799.763489,222.065521 797.030212,226.764862
z"/>
<path fill="#FFFFFF" opacity="1.000000" stroke="none"
	d="
M1088.000488,407.932739
	C1088.000488,330.144135 1088.000488,252.848877 1088.000488,175.277222
	C1105.307861,175.277222 1122.378174,175.277222 1139.798340,175.277222
	C1139.798340,181.641876 1139.798340,188.052414 1139.798340,195.685059
	C1146.699707,184.010101 1155.635864,176.293884 1167.799316,173.868103
	C1182.341187,170.967957 1196.428101,172.650070 1208.227905,182.799362
	C1219.468872,192.468155 1225.323120,205.389969 1228.944824,219.395233
	C1231.241089,228.275345 1233.067871,237.281128 1234.918335,246.269028
	C1235.337036,248.302460 1234.979858,250.495605 1234.979858,252.804153
	C1219.533813,252.804153 1204.445068,252.804153 1189.380127,252.804153
	C1187.711426,240.600189 1184.949829,229.067093 1175.164185,220.660309
	C1164.891602,211.835297 1156.471924,213.714294 1149.492432,223.348618
	C1142.589966,232.876617 1140.015503,244.453842 1139.067017,256.080688
	C1134.844238,307.851288 1137.909668,359.732330 1137.001465,411.556244
	C1136.984375,412.527740 1136.999390,413.499786 1136.999390,414.734741
	C1120.667847,414.734741 1104.597656,414.734741 1088.000488,414.734741
	C1088.000488,412.636230 1088.000488,410.531158 1088.000488,407.932739
z"/>
<path fill="#CF4566" opacity="1.000000" stroke="none"
	d="
M300.395721,450.645050
	C304.338013,448.232452 308.027557,446.097321 310.917694,444.424805
	C309.978516,443.072815 308.194855,441.283813 307.335846,439.126617
	C304.446472,431.870697 301.711670,424.542023 299.236786,417.134552
	C294.190674,402.031372 294.300293,387.333344 305.596924,374.957062
	C309.947449,370.190735 316.154388,367.103455 321.583588,363.349609
	C322.728790,362.557831 324.171875,362.196869 325.346832,361.321075
	C316.296448,361.127869 308.798004,365.132263 301.411469,370.403564
	C300.134338,367.579376 298.994324,365.058350 297.743164,362.291504
	C313.323364,350.093506 318.477173,333.379456 318.814240,313.183899
	C322.745911,320.237122 326.051117,325.936157 329.136383,331.751953
	C334.602600,342.055878 342.130096,350.676483 350.768860,358.355865
	C370.159027,375.592621 378.283356,401.556946 370.903320,423.222687
	C367.857086,432.165649 362.411285,439.280670 354.883270,445.010712
	C352.680664,446.687256 351.305237,449.450531 349.042175,452.372070
	C345.956299,453.538025 341.536163,455.208069 336.444366,457.131897
	C329.158539,451.222900 327.023224,450.999939 318.866821,456.294922
	C315.271515,452.728302 311.274414,451.942169 306.283264,454.205078
	C304.996979,454.788239 302.229858,452.105164 300.395721,450.645050
z"/>
<path fill="#A3EBEC" opacity="1.000000" stroke="none"
	d="
M361.946503,307.351776
	C354.713379,304.150818 347.723907,300.050110 340.177307,298.006897
	C332.911926,296.039825 325.070648,296.199890 316.483185,295.323395
	C317.979156,294.210938 318.524536,293.531250 319.208099,293.336395
	C351.641998,284.090240 369.143494,261.040405 377.820557,229.887680
	C378.977020,225.735611 379.884613,221.476517 380.444092,217.206284
	C381.022980,212.787964 383.204651,211.073990 387.597015,210.623398
	C404.503357,208.889023 420.721680,212.355576 436.865448,216.587646
	C455.217407,221.398605 471.878479,229.940292 487.889893,239.888870
	C488.732391,240.412354 489.545288,240.991043 490.324493,241.604324
	C490.557495,241.787735 490.629028,242.176376 490.815521,242.553955
	C480.291443,245.941879 478.867096,254.847000 477.786926,264.661987
	C476.567139,263.378662 475.647247,262.401184 474.716980,261.433594
	C461.706268,247.900986 447.033234,237.227982 428.308563,232.754196
	C420.764069,230.951614 413.556946,227.740585 406.189362,225.190674
	C404.683472,224.669495 403.146515,224.238281 401.623871,223.765579
	C401.447083,224.175461 401.270294,224.585327 401.093506,224.995209
	C410.498901,229.610779 419.904297,234.226349 429.754395,239.235687
	C430.527344,239.707520 430.855652,239.785599 431.183960,239.863708
	C431.924133,240.183487 432.664307,240.503265 433.677673,241.341385
	C435.109314,242.994598 436.222717,244.180161 437.433411,245.256287
	C446.750977,253.538071 454.976135,262.671112 460.145813,274.204773
	C449.613922,277.008575 441.075714,282.550446 435.677521,292.253357
	C435.214020,292.030182 434.771851,291.965393 434.684967,291.754333
	C428.581635,276.928802 419.502380,264.350861 407.603302,253.500366
	C402.027893,248.416290 397.879089,241.767746 392.701538,235.296234
	C391.565857,234.814041 390.812408,234.863800 390.074524,235.173538
	C390.343689,235.646103 390.597260,235.858658 391.019165,236.201736
	C391.187531,236.332260 391.604645,236.419205 391.604645,236.419205
	C391.671753,236.770004 391.738861,237.120789 391.572235,237.953369
	C395.281311,248.009491 398.578949,257.920349 403.348053,267.063721
	C408.132843,276.237183 412.468933,285.349609 413.664368,295.715546
	C405.301483,294.842529 397.006622,295.101257 389.363647,298.946198
	C385.453888,300.913116 381.999054,303.784210 378.920898,305.854950
	C380.548096,291.701538 382.264526,276.771851 383.980988,261.842133
	C383.433533,261.751007 382.886078,261.659851 382.338623,261.568695
	C382.090546,262.404541 381.842468,263.240356 381.157166,264.583008
	C374.462128,279.177124 368.204315,293.264435 361.946503,307.351776
z"/>
<path fill="#D04566" opacity="1.000000" stroke="none"
	d="
M460.958832,439.935394
	C460.488617,440.210999 460.018372,440.486633 459.043182,440.556061
	C444.518250,444.485168 430.442261,446.800323 415.618073,445.181885
	C399.644806,443.438049 389.961487,435.891876 387.402069,420.322540
	C386.550629,415.143127 387.052887,409.737579 386.983307,404.434814
	C386.950378,401.925598 387.028229,399.414948 387.055908,396.904938
	C397.211761,403.559143 408.237793,407.954956 420.306610,409.546844
	C432.787994,411.193146 444.443665,408.735901 455.204071,402.187439
	C465.685150,395.808929 467.974091,385.392609 468.832306,374.298706
	C468.922028,373.138855 468.559174,371.818298 468.997742,370.836517
	C470.000885,368.590790 470.920166,365.396576 472.716278,364.669556
	C474.552887,363.926147 478.384186,364.897858 479.606567,366.469086
	C482.901978,370.705139 486.437744,375.342224 487.814545,380.383667
	C494.706055,405.618958 486.570007,424.943390 463.022339,438.837280
	C461.919617,439.279083 461.439240,439.607239 460.958832,439.935394
z"/>
<path fill="#CF4566" opacity="1.000000" stroke="none"
	d="
M269.623291,352.415070
	C264.520111,351.356720 259.664062,351.508423 255.274445,355.689758
	C252.182800,351.503448 248.149414,350.681061 243.056519,350.925751
	C239.673950,351.088287 236.161163,348.541138 232.552673,347.147461
	C233.517670,341.239471 239.500412,336.820374 247.815613,335.800751
	C256.035736,334.792816 264.335480,333.849030 272.342621,331.846802
	C281.093658,329.658447 287.224762,324.005157 289.169556,314.382385
	C289.029572,313.999451 289.026428,314.062408 289.357361,314.005676
	C289.814911,313.295319 289.941498,312.641663 290.318970,311.784790
	C291.215393,308.677734 290.318542,308.867462 288.259003,310.239258
	C285.642853,311.981659 282.812317,313.402161 280.074219,314.961487
	C277.740570,301.283661 275.406921,287.605865 273.524292,273.472961
	C283.326111,270.337708 292.676849,267.657501 302.027618,264.977325
	C305.474060,281.866943 309.936554,298.626984 312.110565,315.678833
	C314.846649,337.139435 301.196381,357.107605 281.413818,362.557678
	C280.486969,354.771210 276.649200,351.509430 269.623291,352.415070
z"/>
<path fill="#CF4566" opacity="1.000000" stroke="none"
	d="
M217.912415,465.810638
	C211.591095,466.828156 205.269760,467.845642 199.033142,468.849518
	C197.488602,464.130798 196.568024,460.274353 194.982590,456.714020
	C192.465225,451.060760 188.954376,449.467712 182.959915,450.457916
	C181.890030,450.634674 180.451508,450.885925 179.708008,450.360352
	C174.668198,446.797913 169.816528,447.102173 165.585358,450.466431
	C162.238876,448.902008 159.358902,447.555664 156.478928,446.209320
	C156.329758,445.838226 156.180588,445.467133 156.031403,445.096039
	C162.344162,443.762085 168.656906,442.428162 175.237488,441.037598
	C172.463333,440.431854 169.532013,439.980255 166.733032,439.105316
	C165.210373,438.629333 163.036758,437.717224 162.649612,436.519348
	C159.040756,425.352997 154.825790,414.259888 152.631485,402.792511
	C150.299194,390.603943 156.445541,377.426605 165.608368,370.743195
	C170.319275,376.412872 176.155777,380.357483 183.449249,382.426697
	C185.098999,382.894714 185.835510,386.581604 187.267761,389.311768
	C187.764450,389.107056 189.035355,388.583252 190.667603,388.400208
	C191.694672,394.329742 191.982864,399.994995 193.096420,405.493042
	C196.528564,422.438812 201.142319,439.026978 215.800079,450.112671
	C220.291611,453.509613 220.330978,457.299957 219.840714,461.812225
	C219.717575,462.945648 219.407440,464.058716 219.183228,465.181152
	C219.183228,465.181152 219.171219,465.073090 218.900574,465.098022
	C218.390747,465.352142 218.151581,465.581390 217.912415,465.810638
z"/>
<path fill="#EDC880" opacity="1.000000" stroke="none"
	d="
M284.951569,424.814423
	C266.883270,428.074768 248.666245,430.402618 230.464233,426.903992
	C212.617844,423.473633 214.526047,424.697815 210.084518,408.049011
	C208.401352,401.739807 208.072601,395.069244 207.038086,387.955444
	C232.983673,393.806427 258.052643,393.136017 283.580505,389.438202
	C281.667969,396.850159 280.611603,403.964539 282.093506,411.292542
	C283.006683,415.807831 283.996277,420.307648 284.951569,424.814423
z"/>
<path fill="#CC4464" opacity="1.000000" stroke="none"
	d="
M479.699707,228.229126
	C456.304016,215.588196 432.032227,206.786316 405.733612,204.585815
	C398.128784,203.949493 390.422852,204.058014 382.788086,204.392227
	C376.910248,204.649521 375.743591,206.757935 374.913208,212.581848
	C370.897919,240.744019 360.278839,265.194977 334.623566,280.406097
	C328.724091,283.903931 321.916077,285.869354 314.976105,288.769897
	C313.732208,285.202698 312.825806,282.603241 311.784119,279.615906
	C314.517334,278.484314 317.106293,277.516296 319.608551,276.360565
	C346.391632,263.990143 359.936798,241.768097 365.917603,213.960297
	C366.616241,210.712021 367.017731,207.400940 367.652039,204.137451
	C369.197601,196.185898 372.636658,192.666748 381.069000,193.262192
	C395.637451,194.290955 410.328461,195.380310 424.614258,198.222610
	C450.553314,203.383408 474.459381,213.881592 495.214294,230.522629
	C501.372009,235.459839 506.287537,241.958847 511.672913,247.833282
	C512.472107,248.705109 512.721191,250.081314 512.837097,250.344315
	C502.202484,243.227264 491.118011,235.809174 479.699707,228.229126
z"/>
<path fill="#EDC980" opacity="1.000000" stroke="none"
	d="
M267.026825,274.984558
	C269.186859,288.732880 271.346924,302.481171 273.593231,316.778351
	C255.121780,321.650818 236.021683,323.506531 216.294510,321.023193
	C217.266968,307.693298 218.227371,294.528534 219.762650,281.052551
	C236.284866,281.938843 251.970215,281.011353 267.026825,274.984558
z"/>
<path fill="#A2EAEB" opacity="1.000000" stroke="none"
	d="
M120.100143,262.189636
	C120.100143,262.189636 120.414368,261.958954 120.868668,261.948547
	C121.572395,261.695007 121.821831,261.451874 122.071274,261.208771
	C126.126732,259.183136 130.182190,257.157471 134.237656,255.131821
	C134.013321,254.676514 133.788986,254.221222 133.564651,253.765930
	C118.631889,257.336212 103.034645,259.377991 92.601051,272.407166
	C89.802147,267.894714 87.089424,263.521210 84.233276,258.916473
	C98.410416,251.591431 114.378159,246.926056 130.643372,242.971451
	C137.896957,241.207870 144.267670,240.175858 148.913101,248.042267
	C150.304214,250.397964 153.587280,251.639038 156.009750,253.382172
	C157.934601,254.767212 158.587616,256.218445 156.753448,258.287201
	C154.884537,260.395172 153.502411,262.978302 151.472672,264.892731
	C140.842880,274.918518 132.053848,286.184296 127.113983,301.097748
	C121.778885,292.349854 115.070007,286.880890 105.331116,284.625061
	C107.138809,279.703278 108.975159,274.998932 111.727081,270.910889
	C113.944122,267.617401 117.267570,265.068726 120.100143,262.189636
z"/>
<path fill="#CE4566" opacity="1.000000" stroke="none"
	d="
M213.746414,279.135040
	C212.491547,294.193359 211.248276,309.252655 209.961395,324.308258
	C209.850067,325.610626 209.450714,326.888367 208.694672,328.427246
	C200.256653,325.726135 193.124008,327.166748 185.628296,332.642365
	C187.362427,332.882111 187.998917,333.032440 188.637695,333.042786
	C189.452438,333.056000 190.269012,332.956085 191.084808,332.904907
	C199.153564,333.916870 203.688095,338.832642 206.164337,346.628601
	C201.662872,347.988861 198.784760,352.873199 193.073303,351.304718
	C191.733810,350.936890 189.141541,352.187317 188.317490,353.463104
	C186.224594,356.703278 183.134384,357.053589 179.481613,357.176453
	C178.007507,354.079712 176.199875,351.362701 176.102997,348.585968
	C175.885147,342.342041 176.515717,336.068481 176.800964,329.807007
	C178.792007,327.228729 180.438614,324.262573 182.831863,322.137177
	C195.249252,311.109711 201.148148,297.010559 203.455872,280.419617
	C207.218124,279.693756 210.482269,279.414398 213.746414,279.135040
z"/>
<path fill="#A2EAEB" opacity="1.000000" stroke="none"
	d="
M146.762650,277.714355
	C151.019608,271.231567 155.276581,264.748779 159.219818,258.743774
	C163.750702,261.864563 168.286621,264.889069 172.690933,268.094421
	C173.755478,268.869171 174.508804,270.169769 175.194321,271.350922
	C179.167816,278.197235 182.574417,285.439178 187.145905,291.853790
	C192.119308,298.832367 192.582397,298.502350 187.371033,305.954956
	C182.053680,298.171173 177.107712,290.560242 172.161758,282.949280
	C171.622482,280.559204 171.083206,278.169128 170.543930,275.779053
	C170.089813,275.834595 169.635712,275.890167 169.181595,275.945709
	C170.592163,287.929871 172.002731,299.914032 173.438934,312.115997
	C165.060852,303.267944 154.506165,301.551056 142.528549,303.241913
	C143.400986,294.876587 144.683029,286.918457 145.965088,278.960327
	C145.965088,278.960327 146.001144,278.998383 146.249237,278.886780
	C146.585754,278.421539 146.674194,278.067963 146.762650,277.714355
z"/>
<path fill="#E8C47D" opacity="1.000000" stroke="none"
	d="
M216.106583,353.185272
	C211.596573,348.584473 210.556488,343.799164 212.766006,337.962769
	C214.036758,334.606079 214.201508,330.830688 214.945633,326.802521
	C235.600433,329.649353 255.764740,327.261078 275.753967,322.420929
	C275.946014,322.851837 276.138062,323.282715 276.330109,323.713593
	C275.207275,324.459473 274.169769,325.639526 272.947571,325.879669
	C265.794281,327.285187 258.643188,328.971405 251.406555,329.627533
	C235.881744,331.035126 228.231262,337.257690 224.855118,352.351776
	C224.027603,356.051514 222.937881,359.814392 222.931610,363.549866
	C222.919800,370.566498 228.013229,376.786438 234.734146,378.568878
	C235.863571,378.868408 237.304596,377.993042 238.794418,377.611176
	C241.771912,379.294464 245.445633,381.371368 249.738464,383.798279
	C250.329956,380.661346 250.738739,378.493347 250.877762,377.756042
	C253.457703,380.247375 256.508789,383.193665 259.022949,385.621490
	C250.378403,387.778320 215.947662,385.757782 207.535767,381.332581
	C207.535767,379.235382 207.535767,377.116669 207.535767,373.797913
	C208.708527,375.457825 209.244766,376.216827 209.787170,376.974304
	C218.756210,371.702362 220.798752,364.372955 216.106583,353.185272
z"/>
<path fill="#861A40" opacity="1.000000" stroke="none"
	d="
M386.867798,396.631348
	C387.028229,399.414948 386.950378,401.925598 386.983307,404.434814
	C387.052887,409.737579 386.550629,415.143127 387.402069,420.322540
	C389.961487,435.891876 399.644806,443.438049 415.618073,445.181885
	C430.442261,446.800323 444.518250,444.485168 458.765991,440.587433
	C451.002991,446.843079 441.390442,448.405273 431.982819,449.760651
	C412.717926,452.536072 393.550720,451.452118 374.765778,445.951111
	C372.440491,445.270172 370.200836,444.296814 367.386505,443.262299
	C379.226959,427.137299 382.135925,409.696777 377.859528,390.099731
	C381.224884,392.487488 383.952301,394.422607 386.867798,396.631348
z"/>
<path fill="#A2E9EA" opacity="1.000000" stroke="none"
	d="
M484.980103,362.025970
	C484.160980,361.470093 483.350586,360.900726 482.521362,360.360382
	C473.642395,354.574646 467.185516,357.272522 462.807312,368.593170
	C456.679565,366.021057 455.085205,361.844849 458.078613,355.035980
	C460.700378,349.072540 461.264526,343.303375 457.555145,337.133850
	C464.386963,337.491455 466.152649,342.706360 468.712860,348.350586
	C469.400940,342.237518 468.323090,337.507019 464.293915,334.524597
	C459.455017,330.942841 460.020721,326.678253 462.383972,322.790680
	C465.864502,317.065063 467.273956,311.266327 465.584015,303.698120
	C468.018951,305.041687 469.657227,305.945648 471.578369,307.417053
	C476.044189,314.895294 477.041779,322.206482 476.195404,330.301575
	C474.909790,342.597992 478.138611,348.861359 489.938965,350.942200
	C490.253876,355.513031 489.045441,359.382782 484.980103,362.025970
z"/>
<path fill="#861A41" opacity="1.000000" stroke="none"
	d="
M219.546631,465.188904
	C219.407440,464.058716 219.717575,462.945648 219.840714,461.812225
	C220.330978,457.299957 220.291611,453.509613 215.800079,450.112671
	C201.142319,439.026978 196.528564,422.438812 193.096420,405.493042
	C191.982864,399.994995 191.694672,394.329742 191.012100,388.306091
	C192.823395,385.549744 194.651535,383.228271 195.966919,381.557922
	C197.959213,382.054382 199.654617,382.476837 201.846848,383.023132
	C200.453079,410.253082 209.469711,433.583832 230.738083,450.786194
	C229.196182,454.349213 228.332367,457.698395 226.438309,460.296539
	C224.905624,462.398956 222.132797,463.597321 219.546631,465.188904
z"/>
<path fill="#CE4565" opacity="1.000000" stroke="none"
	d="
M131.093262,92.947319
	C127.917442,89.185532 124.438881,85.634888 121.634628,81.613976
	C117.088036,75.094788 117.940529,67.285408 117.291206,59.877472
	C116.894661,55.353340 116.668282,50.814297 116.282547,45.040707
	C118.378471,46.474468 119.467705,47.058067 120.364487,47.857548
	C131.804886,58.056690 140.617599,70.306931 148.251678,83.498726
	C149.579865,85.793854 149.386353,87.308456 147.363892,89.050652
	C144.977051,91.106712 142.892319,93.513481 140.069016,95.786194
	C137.496124,95.204567 135.530838,94.604935 133.314484,93.732727
	C132.377655,93.284126 131.691879,93.108093 131.022934,92.963890
	C131.039764,92.995720 131.093262,92.947319 131.093262,92.947319
z"/>
<path fill="#BA9552" opacity="1.000000" stroke="none"
	d="
M287.883118,430.445129
	C297.336487,428.030334 297.370850,428.018677 300.451965,437.093384
	C301.238251,439.409058 301.731323,441.824310 302.043762,443.003601
	C297.494995,447.532654 293.913055,451.600800 289.779877,454.998474
	C287.773438,456.647858 284.807465,457.540466 282.152466,457.926483
	C257.769562,461.471375 238.217392,452.897522 223.226822,433.512177
	C224.225403,433.516754 225.037521,433.788422 225.636978,434.306274
	C237.597549,444.638580 251.511322,449.444061 267.256409,448.979828
	C280.556824,448.587677 286.957001,442.786377 287.883118,430.445129
z"/>
<path fill="#ECC77F" opacity="1.000000" stroke="none"
	d="
M287.491669,430.415955
	C286.957001,442.786377 280.556824,448.587677 267.256409,448.979828
	C251.511322,449.444061 237.597549,444.638580 225.636978,434.306274
	C225.037521,433.788422 224.225403,433.516754 223.158890,433.181488
	C222.805481,433.232544 222.826706,433.212982 222.795700,432.931702
	C222.457275,432.461121 222.149857,432.271820 221.842438,432.082520
	C221.516098,431.963226 221.276962,431.747345 220.993240,431.271667
	C220.861435,431.108490 220.866302,431.186554 220.866302,431.186584
	C227.592484,431.845642 234.340500,433.222717 241.040421,433.018829
	C256.406158,432.551147 271.748413,431.312439 287.491669,430.415955
z"/>
<path fill="#68A1B0" opacity="1.000000" stroke="none"
	d="
M413.937866,295.842499
	C412.468933,285.349609 408.132843,276.237183 403.348053,267.063721
	C398.578949,257.920349 395.281311,248.009491 391.595093,238.223022
	C403.861084,258.790436 422.956909,275.449524 428.458710,300.609070
	C423.394043,298.959778 418.802704,297.464600 413.937866,295.842499
z"/>
<path fill="#C74262" opacity="1.000000" stroke="none"
	d="
M87.514008,250.463531
	C81.072929,253.510498 74.974892,256.391754 68.023895,259.675995
	C78.592072,246.030334 113.241692,230.304596 137.694305,227.605515
	C138.339096,230.078217 138.994614,232.592026 139.335571,233.899536
	C121.927757,239.444733 104.892403,244.871277 87.514008,250.463531
z"/>
<path fill="#68A1B0" opacity="1.000000" stroke="none"
	d="
M485.147400,362.312500
	C489.045441,359.382782 490.253876,355.513031 489.938965,350.942200
	C478.138611,348.861359 474.909790,342.597992 476.195404,330.301575
	C477.041779,322.206482 476.044189,314.895294 471.866394,307.622925
	C480.078125,310.960052 483.258087,317.905579 483.932343,326.314362
	C484.156708,329.112549 483.783966,331.958954 483.678925,334.783112
	C483.550354,338.240326 483.807220,341.559204 487.535400,343.202972
	C491.343842,344.882080 494.312256,343.305634 496.834564,340.499908
	C497.373352,339.900574 497.645355,339.061401 498.578735,338.676575
	C500.465729,345.931396 497.891327,351.839783 494.134247,357.368835
	C492.841644,359.271149 491.230499,361.091461 489.386993,362.428040
	C488.470184,363.092743 486.699249,362.579468 485.147400,362.312500
z"/>
<path fill="#BA9552" opacity="1.000000" stroke="none"
	d="
M267.074707,274.546051
	C251.970215,281.011353 236.284866,281.938843 219.830521,280.623047
	C219.323532,278.237030 219.323532,275.969360 219.323532,273.167572
	C235.819061,275.423981 251.190018,272.254456 266.769348,266.297546
	C266.917389,269.570709 267.019958,271.839142 267.074707,274.546051
z"/>
<path fill="#E6C27B" opacity="1.000000" stroke="none"
	d="
M294.268066,367.676758
	C296.359497,371.944183 298.306305,375.864166 294.082489,379.587463
	C293.381134,380.205719 292.634918,381.030548 291.797638,381.196747
	C284.380341,382.669189 276.937775,384.014496 269.364014,385.423096
	C269.444397,376.933502 271.218689,374.507050 277.761627,372.204681
	C282.116241,370.672394 286.290802,368.632660 290.626465,367.039154
	C291.624878,366.672211 292.953064,367.202576 294.268066,367.676758
z"/>
<path fill="#68A1B0" opacity="1.000000" stroke="none"
	d="
M460.599609,274.237122
	C454.976135,262.671112 446.750977,253.538071 437.433411,245.256287
	C436.222717,244.180161 435.109314,242.994598 433.923950,241.519836
	C445.989258,245.692520 455.673889,253.667709 464.510132,262.759552
	C467.598602,265.937317 470.191254,269.596924 473.545380,273.689392
	C468.790588,273.910187 464.921997,274.089844 460.599609,274.237122
z"/>
<path fill="#F8F8F8" opacity="1.000000" stroke="none"
	d="
M320.282104,479.027496
	C318.907135,478.018677 317.080597,476.860535 317.230865,476.085846
	C318.076965,471.723663 319.147949,467.364899 320.632111,463.178619
	C321.967224,459.412872 324.746765,456.761475 329.068542,458.161652
	C333.365479,459.553711 334.363525,463.397461 334.035583,467.441315
	C333.755585,470.893829 333.008850,474.308441 332.343628,478.533417
	C328.597992,478.701904 324.670654,478.878571 320.282104,479.027496
z"/>
<path fill="#841A40" opacity="1.000000" stroke="none"
	d="
M375.080933,99.009605
	C368.655365,101.002907 362.188446,102.981407 355.305664,104.923843
	C358.244751,98.094650 363.063507,93.191612 369.930695,89.338005
	C376.233673,85.800995 381.177185,79.841423 386.876923,74.810410
	C385.262146,83.143356 381.196411,90.506966 376.078491,97.928856
	C375.364838,98.495712 375.181976,98.784271 374.999146,99.072823
	C374.999115,99.072815 375.039551,98.994812 375.080933,99.009605
z"/>
<path fill="#B99451" opacity="1.000000" stroke="none"
	d="
M285.347809,424.843323
	C283.996277,420.307648 283.006683,415.807831 282.093506,411.292542
	C280.611603,403.964539 281.667969,396.850159 283.997894,389.464478
	C285.869781,388.674347 287.757324,388.277679 288.715668,388.076263
	C290.009430,399.859436 291.261139,411.259735 292.578674,423.259430
	C291.137970,423.599396 288.441010,424.235840 285.347809,424.843323
z"/>
<path fill="#68A0AF" opacity="1.000000" stroke="none"
	d="
M362.088013,307.638611
	C368.204315,293.264435 374.462128,279.177124 381.018982,264.941406
	C379.616821,273.551849 378.069000,282.344055 376.170074,291.059784
	C374.370636,299.318756 372.203217,307.497559 370.148315,315.913483
	C367.667480,313.410980 364.948486,310.668213 362.088013,307.638611
z"/>
<path fill="#F7F7F7" opacity="1.000000" stroke="none"
	d="
M266.706879,373.944672
	C265.860199,376.442932 265.205688,378.610016 264.544464,380.799408
	C257.188690,376.843628 254.128464,369.676147 256.652771,362.522125
	C258.211609,358.104218 262.330322,355.840363 266.421631,357.152618
	C270.092255,358.329956 272.039520,363.316711 270.265930,367.562836
	C269.381897,369.679230 268.036011,371.602722 266.706879,373.944672
z"/>
<path fill="#831A3F" opacity="1.000000" stroke="none"
	d="
M176.516388,329.992279
	C176.515717,336.068481 175.885147,342.342041 176.102997,348.585968
	C176.199875,351.362701 178.007507,354.079712 179.063171,357.248260
	C175.146851,361.549408 173.472931,366.050293 176.129623,372.121704
	C165.090012,364.177856 165.556961,343.937683 176.516388,329.992279
z"/>
<path fill="#861A41" opacity="1.000000" stroke="none"
	d="
M302.066101,264.537872
	C292.676849,267.657501 283.326111,270.337708 273.569550,273.053284
	C271.813721,267.872375 273.802063,265.785706 279.160095,264.569580
	C286.764069,262.843689 294.052399,259.727020 302.104614,256.990967
	C302.104614,259.556335 302.104614,261.827393 302.066101,264.537872
z"/>
<path fill="#F4F4F4" opacity="1.000000" stroke="none"
	d="
M302.578369,471.496338
	C304.287415,467.355438 305.570129,463.411896 307.697571,459.994171
	C308.388153,458.884766 311.770081,458.306000 313.042206,459.029572
	C314.280914,459.734100 315.142914,462.543396 314.860138,464.205597
	C314.063110,468.889679 312.592651,473.459167 311.364807,478.161285
	C303.711639,479.702057 301.544067,478.216888 302.578369,471.496338
z"/>
<path fill="#F7F7F7" opacity="1.000000" stroke="none"
	d="
M351.771423,464.530518
	C353.887695,474.413055 353.891510,474.429321 344.309906,476.679993
	C342.704529,477.057098 341.049957,477.224915 337.922943,477.731903
	C339.237061,472.626801 339.986328,467.964478 341.736694,463.714417
	C342.517792,461.817932 345.227142,459.816559 347.221924,459.635895
	C348.544952,459.516083 350.152863,462.541534 351.771423,464.530518
z"/>
<path fill="#F5F5F5" opacity="1.000000" stroke="none"
	d="
M172.280304,452.601624
	C173.993073,452.928528 175.362564,453.343018 176.306580,453.628754
	C174.695847,459.881439 173.203278,465.675446 171.633820,471.767944
	C168.518005,471.767944 165.291992,471.767944 161.339844,471.767944
	C163.064087,463.988098 163.626572,456.300201 172.280304,452.601624
z"/>
<path fill="#831A3F" opacity="1.000000" stroke="none"
	d="
M374.389160,143.856812
	C365.349304,140.112930 356.356384,140.516220 347.266449,142.399139
	C345.812286,142.700333 344.327148,142.852142 342.429199,143.040344
	C348.031921,137.477386 355.625458,135.892166 363.325043,135.200714
	C368.441132,134.741272 373.660248,135.428772 378.833282,135.602875
	C379.040802,136.107147 379.248322,136.611420 379.455872,137.115692
	C377.867004,139.312210 376.278168,141.508743 374.389160,143.856812
z"/>
<path fill="#F4F4F4" opacity="1.000000" stroke="none"
	d="
M192.520386,371.423340
	C191.924362,374.914703 191.244858,378.019745 190.710327,380.462280
	C187.610458,377.860168 184.338638,375.936615 182.271667,373.126770
	C180.514374,370.737885 179.727127,367.369904 179.418549,364.342621
	C179.325943,363.434235 182.766068,360.987610 183.746796,361.374939
	C186.393127,362.420135 188.807785,364.389954 190.866501,366.442169
	C191.894897,367.467224 191.944550,369.474182 192.520386,371.423340
z"/>
<path fill="#F5F5F5" opacity="1.000000" stroke="none"
	d="
M190.944427,469.486450
	C186.423431,470.778564 182.011368,471.647614 177.599304,472.516693
	C177.136948,472.050598 176.674591,471.584534 176.212234,471.118439
	C177.820648,466.982483 179.102875,462.669250 181.204514,458.801270
	C182.000137,457.336975 184.760727,456.094452 186.486328,456.254364
	C187.818542,456.377777 189.541473,458.673859 190.009079,460.312592
	C190.804977,463.101746 190.750519,466.133545 190.944427,469.486450
z"/>
<path fill="#F3F3F3" opacity="1.000000" stroke="none"
	d="
M246.954391,372.110107
	C246.444382,373.375214 246.034424,374.273987 245.620865,375.180695
	C240.131744,371.628693 237.971283,363.903748 241.676178,358.818665
	C243.010986,356.986572 246.233780,356.530090 248.594986,355.445862
	C249.672684,357.818756 251.918320,360.390594 251.555908,362.518188
	C251.004562,365.755066 248.645676,368.684052 246.954391,372.110107
z"/>
<path fill="#F5F5F5" opacity="1.000000" stroke="none"
	d="
M155.524612,452.360352
	C161.473846,453.323059 161.818146,453.987549 160.069565,458.800629
	C158.777313,462.357544 157.787903,466.024475 156.619446,469.784363
	C156.517120,469.833344 156.226883,470.087402 155.927383,470.098785
	C147.336853,470.426239 145.933075,468.827606 149.074707,460.991821
	C150.335495,457.847229 153.089203,455.301208 155.524612,452.360352
z"/>
<path fill="#68A0AF" opacity="1.000000" stroke="none"
	d="
M172.091827,283.358643
	C177.107712,290.560242 182.053680,298.171173 187.073120,306.151123
	C185.173477,309.682037 183.200348,312.843964 181.227203,316.005890
	C180.769211,315.927795 180.311218,315.849670 179.853210,315.771545
	C177.242767,305.103699 174.632339,294.435822 172.091827,283.358643
z"/>
<path fill="#C74262" opacity="1.000000" stroke="none"
	d="
M190.533463,288.533997
	C186.376923,283.412048 182.161194,278.727417 180.940994,272.183746
	C194.442078,271.789948 198.680161,278.219055 193.658524,291.153931
	C192.619751,290.308777 191.695541,289.556854 190.533463,288.533997
z"/>
<path fill="#669EAC" opacity="1.000000" stroke="none"
	d="
M119.739380,262.146759
	C117.267570,265.068726 113.944122,267.617401 111.727081,270.910889
	C108.975159,274.998932 107.138809,279.703278 104.967392,284.533600
	C101.730301,284.925751 98.432823,284.925751 94.209610,284.925751
	C99.242004,272.978027 109.099846,267.316010 119.739380,262.146759
z"/>
<path fill="#F5F5F5" opacity="1.000000" stroke="none"
	d="
M296.814880,457.683868
	C298.723663,457.646362 300.283844,457.741821 301.601624,457.822418
	C299.826294,464.037964 298.175812,469.816467 296.372192,476.131012
	C294.151245,475.836456 291.588928,475.496643 288.391754,475.072601
	C289.450775,468.232666 289.619446,461.571259 296.814880,457.683868
z"/>
<path fill="#F3F3F3" opacity="1.000000" stroke="none"
	d="
M195.785309,370.135345
	C193.774658,365.993683 191.949203,362.179382 190.030777,358.170807
	C192.637192,354.852997 195.720230,354.326233 198.815033,356.990265
	C203.909546,361.375671 204.244583,369.492218 199.470764,375.247406
	C198.290451,373.633942 197.130478,372.048309 195.785309,370.135345
z"/>
<path fill="#F2F2F2" opacity="1.000000" stroke="none"
	d="
M209.807404,368.381531
	C207.442581,364.429230 205.168335,360.849457 203.122620,357.143555
	C201.255127,353.760559 203.131409,350.914185 207.001511,351.377167
	C211.293716,351.890717 213.513168,355.301361 213.730484,358.907349
	C213.951538,362.575500 212.458145,366.346985 211.715485,370.073242
	C211.142853,369.615204 210.570236,369.157166 209.807404,368.381531
z"/>
<path fill="#669EAC" opacity="1.000000" stroke="none"
	d="
M145.642487,279.068420
	C144.683029,286.918457 143.400986,294.876587 142.124008,303.256439
	C139.113235,304.983398 136.097382,306.288635 132.346146,307.912140
	C134.674973,297.052002 139.172821,287.759155 145.642487,279.068420
z"/>
<path fill="#F3F3F3" opacity="1.000000" stroke="none"
	d="
M230.191223,355.395996
	C232.862000,352.484589 235.575226,351.888397 238.501129,353.726013
	C237.047745,360.339142 235.668594,366.614410 234.217300,373.217987
	C227.831192,367.860809 226.885956,363.472382 230.191223,355.395996
z"/>
<path fill="#F4F4F4" opacity="1.000000" stroke="none"
	d="
M144.391235,451.919861
	C145.689438,451.883881 146.638580,451.883881 147.412628,451.883881
	C145.478317,457.277588 143.618576,462.463348 141.713364,467.775909
	C134.643906,468.441132 133.538940,467.143127 135.906631,460.331635
	C137.303680,456.312592 139.287857,452.761963 144.391235,451.919861
z"/>
<path fill="#C74262" opacity="1.000000" stroke="none"
	d="
M155.317276,226.992950
	C154.299316,231.647598 153.281372,236.302261 152.304810,240.767670
	C147.296448,237.808105 144.087997,230.099808 144.414536,219.712448
	C147.295090,223.321609 150.507889,226.272415 155.317276,226.992950
z"/>
<path fill="#831A3F" opacity="1.000000" stroke="none"
	d="
M367.301331,171.861984
	C361.567902,165.433945 353.856110,164.175629 346.137451,163.001175
	C344.257477,162.715134 342.325104,162.773758 339.141266,162.607147
	C340.948730,161.243210 341.661774,160.705124 342.726135,160.112518
	C345.081268,160.360931 347.096436,160.981781 349.087006,160.911118
	C357.207886,160.622894 364.827759,162.106781 373.507751,168.359665
	C371.544830,169.487671 369.581909,170.615677 367.301331,171.861984
z"/>
<path fill="#7F193D" opacity="1.000000" stroke="none"
	d="
M133.565536,94.005302
	C135.530838,94.604935 137.496124,95.204567 139.783249,95.957863
	C139.411331,97.211632 138.812683,98.387344 138.008072,99.399315
	C133.542099,105.016197 131.954803,105.131706 127.344131,99.550774
	C125.184402,96.936554 123.619232,93.831139 122.474800,90.188339
	C125.099655,91.198555 127.724503,92.208771 130.721313,93.083160
	C131.093262,92.947319 131.039764,92.995720 131.173157,93.316528
	C132.059540,93.759995 132.812546,93.882645 133.565536,94.005302
z"/>
<path fill="#831A3F" opacity="1.000000" stroke="none"
	d="
M191.096588,332.542572
	C190.269012,332.956085 189.452438,333.056000 188.637695,333.042786
	C187.998917,333.032440 187.362427,332.882111 185.628296,332.642365
	C193.124008,327.166748 200.256653,325.726135 208.561157,328.803467
	C208.554932,331.482605 208.191757,334.035187 207.747833,337.155273
	C202.404709,333.605438 197.568726,329.832703 191.096588,332.542572
z"/>
<path fill="#7F193D" opacity="1.000000" stroke="none"
	d="
M252.524994,249.046783
	C253.679062,255.456055 250.015701,260.202850 245.969406,265.213684
	C241.288116,266.189972 236.754562,266.804749 232.221008,267.419525
	C232.037628,267.048584 231.854248,266.677673 231.670868,266.306763
	C239.831528,262.109589 248.312378,258.279480 252.524994,249.046783
z"/>
<path fill="#F3F3F3" opacity="1.000000" stroke="none"
	d="
M163.236938,185.476227
	C162.042236,189.107834 159.608948,191.312363 156.541428,189.466766
	C154.694214,188.355377 153.135544,184.887131 153.407776,182.724854
	C153.625214,180.997818 156.800186,178.393951 158.669662,178.387848
	C162.399811,178.375641 163.598145,181.564621 163.236938,185.476227
z"/>
<path fill="#86C5CC" opacity="1.000000" stroke="none"
	d="
M388.739502,389.536957
	C385.223419,387.493774 381.929047,385.162292 377.351105,381.922455
	C383.066315,380.617126 387.223938,379.667542 392.229553,378.524261
	C390.936371,382.767487 389.948792,386.008087 388.739502,389.536957
z"/>
<path fill="#89C9CF" opacity="1.000000" stroke="none"
	d="
M339.329956,324.846161
	C341.800934,325.272186 343.860077,325.646454 346.401367,326.108337
	C344.422821,328.698669 342.810150,330.784119 341.231476,332.895020
	C340.833496,333.427124 340.544434,334.040710 339.879364,335.170776
	C337.199524,331.188416 335.041107,327.980896 332.200104,323.759064
	C335.204559,324.222076 337.061371,324.508209 339.329956,324.846161
z"/>
<path fill="#EAEAEA" opacity="1.000000" stroke="none"
	d="
M143.071121,167.945160
	C145.622849,167.598831 147.787552,167.318863 149.952240,167.038895
	C143.656357,171.253876 140.943771,177.225220 139.443359,184.499313
	C137.396942,180.155563 139.366745,171.452850 143.071121,167.945160
z"/>
<path fill="#831A3F" opacity="1.000000" stroke="none"
	d="
M155.559113,226.765778
	C150.507889,226.272415 147.295090,223.321609 144.471771,219.282013
	C144.283096,218.208206 144.377350,217.283890 144.500504,216.076126
	C149.057327,218.133972 153.300034,220.049957 158.029480,222.185760
	C157.350220,223.512512 156.575577,225.025558 155.559113,226.765778
z"/>
<path fill="#86C5CC" opacity="1.000000" stroke="none"
	d="
M444.681702,390.986816
	C447.700897,392.731781 450.329376,394.410614 453.834167,396.649200
	C450.077209,398.669342 446.934357,400.359253 442.438782,402.776520
	C443.209045,397.845978 443.750000,394.383331 444.681702,390.986816
z"/>
<path fill="#831A3F" opacity="1.000000" stroke="none"
	d="
M269.789368,352.700928
	C276.649200,351.509430 280.486969,354.771210 281.038757,362.534119
	C279.584290,363.576721 278.152466,364.221649 277.664825,364.441315
	C274.872925,360.293091 272.414215,356.639923 269.789368,352.700928
z"/>
<path fill="#99DCDE" opacity="1.000000" stroke="none"
	d="
M368.039795,367.982117
	C366.481415,365.968903 364.923065,363.955658 362.816284,361.233856
	C367.998932,361.518005 372.202667,361.710907 376.395752,362.040161
	C376.787201,362.070892 377.110962,362.964020 376.882721,363.771423
	C373.546143,365.384766 370.792969,366.683441 368.039795,367.982117
z"/>
<path fill="#99DCDE" opacity="1.000000" stroke="none"
	d="
M351.760162,350.185822
	C350.092224,348.429321 348.424286,346.672821 345.773590,343.881409
	C351.215485,343.523285 355.485168,343.227570 359.759064,343.019775
	C359.915314,343.012207 360.113464,343.866058 359.849579,344.797974
	C359.244904,345.818756 359.082703,346.360016 358.920532,346.901276
	C358.920532,346.901276 359.003235,346.951569 358.597290,346.960846
	C356.047638,348.042023 353.903900,349.113922 351.760162,350.185822
z"/>
<path fill="#841A40" opacity="1.000000" stroke="none"
	d="
M213.820923,278.695496
	C210.482269,279.414398 207.218124,279.693756 203.524979,280.011688
	C203.095978,278.260803 203.095978,276.471313 203.095978,274.810974
	C212.628235,272.879700 213.615158,273.221649 213.820923,278.695496
z"/>
<path fill="#8FD1D6" opacity="1.000000" stroke="none"
	d="
M426.716614,404.312256
	C424.372467,404.244049 422.404907,404.121735 419.760284,403.957336
	C421.611176,400.928833 423.175446,398.369324 425.154236,395.131531
	C426.999969,398.360535 428.439850,400.879578 430.076050,403.742035
	C428.920166,403.942047 428.006683,404.100098 426.716614,404.312256
z"/>
<path fill="#7F193D" opacity="1.000000" stroke="none"
	d="
M280.059509,315.336548
	C282.812317,313.402161 285.642853,311.981659 288.259003,310.239258
	C290.318542,308.867462 291.215393,308.677734 290.025330,311.913757
	C289.329285,312.851471 289.177856,313.456940 289.026428,314.062408
	C289.026428,314.062408 289.029572,313.999451 289.060852,313.999084
	C286.877289,316.337006 284.662445,318.675293 281.884399,321.608185
	C281.086395,319.050323 280.565582,317.380951 280.059509,315.336548
z"/>
<path fill="#669EAC" opacity="1.000000" stroke="none"
	d="
M368.137024,368.304626
	C370.792969,366.683441 373.546143,365.384766 376.648651,364.039490
	C375.307861,367.029419 373.617767,370.065918 371.679199,373.548828
	C370.249329,371.506012 369.241821,370.066589 368.137024,368.304626
z"/>
<path fill="#669EAC" opacity="1.000000" stroke="none"
	d="
M405.389343,391.718719
	C406.003296,391.914032 407.114624,392.038971 407.153809,392.315643
	C407.520325,394.904938 407.703125,397.520172 407.982483,400.607574
	C405.702484,399.825134 404.003052,399.241943 402.412048,398.230530
	C403.476746,395.774475 404.433044,393.746582 405.389343,391.718719
z"/>
<path fill="#669EAC" opacity="1.000000" stroke="none"
	d="
M351.884888,350.509033
	C353.903900,349.113922 356.047638,348.042023 358.549377,346.954163
	C357.988861,349.398315 357.070312,351.858459 355.746613,355.403748
	C354.025696,353.298523 353.017670,352.065369 351.884888,350.509033
z"/>
<path fill="#99DCDE" opacity="1.000000" stroke="none"
	d="
M405.011169,391.789429
	C404.433044,393.746582 403.476746,395.774475 402.186646,397.968994
	C400.715424,397.611908 399.578033,397.088165 397.762665,396.252228
	C400.388519,394.573547 402.510773,393.216827 405.011169,391.789429
z"/>
<path fill="#861A40" opacity="1.000000" stroke="none"
	d="
M461.265564,439.968658
	C461.439240,439.607239 461.919617,439.279083 462.706451,438.976746
	C462.532684,439.335693 462.052521,439.668793 461.265564,439.968658
z"/>
<path fill="#669EAC" opacity="1.000000" stroke="none"
	d="
M359.201111,346.780396
	C359.082703,346.360016 359.244904,345.818756 359.660919,345.120544
	C359.770386,345.528900 359.626007,346.094208 359.201111,346.780396
z"/>
<path fill="#ECC77F" opacity="1.000000" stroke="none"
	d="
M220.827301,431.089355
	C220.793152,431.070251 220.941376,430.944366 220.941376,430.944366
	C220.941376,430.944366 220.749725,431.094452 220.808014,431.140503
	C220.866302,431.186554 220.861435,431.108490 220.827301,431.089355
z"/>
<path fill="#BA9552" opacity="1.000000" stroke="none"
	d="
M221.889374,432.354309
	C222.149857,432.271820 222.457275,432.461121 222.783218,432.932831
	C222.513260,433.018860 222.224792,432.822479 221.889374,432.354309
z"/>
<path fill="#68A1B0" opacity="1.000000" stroke="none"
	d="
M431.076416,239.614166
	C430.855652,239.785599 430.527344,239.707520 430.074982,239.393036
	C430.290253,239.225983 430.629547,239.295303 431.076416,239.614166
z"/>
<path fill="#669EAC" opacity="1.000000" stroke="none"
	d="
M121.795532,261.151428
	C121.821831,261.451874 121.572395,261.695007 121.054237,261.888916
	C121.030281,261.591187 121.275040,261.342621 121.795532,261.151428
z"/>
<path fill="#831A3F" opacity="1.000000" stroke="none"
	d="
M341.748291,143.029633
	C341.782043,143.264069 341.556702,143.524567 341.060852,143.790222
	C341.023346,143.548813 341.256256,143.302261 341.748291,143.029633
z"/>
<path fill="#D04667" opacity="1.000000" stroke="none"
	d="
M375.252747,98.988052
	C375.181976,98.784271 375.364838,98.495712 375.788055,98.102051
	C375.854370,98.299049 375.680328,98.601158 375.252747,98.988052
z"/>
<path fill="#669EAC" opacity="1.000000" stroke="none"
	d="
M146.506104,277.826172
	C146.674194,278.067963 146.585754,278.421539 146.226639,278.873840
	C146.053833,278.627686 146.151703,278.282837 146.506104,277.826172
z"/>
<path fill="#7F193D" opacity="1.000000" stroke="none"
	d="
M121.472954,88.570862
	C121.459328,88.535301 121.486580,88.606422 121.472954,88.570862
z"/>
<path fill="#861A41" opacity="1.000000" stroke="none"
	d="
M218.171570,465.828430
	C218.151581,465.581390 218.390747,465.352142 218.885056,465.150085
	C218.903702,465.400238 218.667221,465.623199 218.171570,465.828430
z"/>
<path fill="#040203" opacity="1.000000" stroke="none"
	d="
M311.815552,162.986359
	C311.762695,169.630310 312.537048,176.407150 311.495117,182.892197
	C308.832642,199.463715 296.627197,211.354507 279.234650,213.623550
	C269.618011,214.878143 259.718048,214.107697 249.953003,213.904739
	C248.636414,213.877380 246.260483,211.851608 246.233597,210.707535
	C245.848099,194.296143 247.215088,178.081543 254.524582,163.041138
	C262.175232,147.298828 277.333588,139.442490 294.747894,141.746887
	C305.554413,143.176895 313.684967,137.542923 317.448456,126.016800
	C320.737885,134.297531 318.116089,139.522247 305.444214,149.577087
	C314.003571,151.467896 320.518219,148.516052 325.974091,142.428223
	C326.096252,142.291885 326.606354,142.277130 326.708160,142.397675
	C326.895538,142.619522 326.913605,142.984360 326.706482,143.829681
	C323.561676,151.331955 318.650269,155.965973 310.748474,157.537064
	C311.148468,159.579727 311.481995,161.283035 311.815552,162.986359
M298.309082,195.758682
	C307.022461,184.628113 306.034210,172.186935 303.018707,159.570938
	C300.724091,149.971100 298.768250,148.605774 289.296326,148.453491
	C291.599670,150.364288 295.475555,152.078506 296.814056,154.968079
	C301.030640,164.071045 301.954956,173.890488 299.676910,183.742966
	C297.239868,194.283112 289.543091,200.221771 280.387329,204.829071
	C287.720184,205.062439 293.063110,201.290451 298.309082,195.758682
M262.996552,170.551880
	C263.242676,174.760986 265.472931,177.908035 269.592957,177.562683
	C271.887726,177.370331 274.747589,174.857437 275.934753,172.633377
	C277.725098,169.279266 275.203247,165.017883 271.735138,163.981552
	C267.777893,162.799103 265.042664,164.624329 262.996552,170.551880
z"/>
<path fill="#861A41" opacity="1.000000" stroke="none"
	d="
M312.212097,162.964386
	C311.481995,161.283035 311.148468,159.579727 310.748474,157.537064
	C318.650269,155.965973 323.561676,151.331955 326.690552,144.176636
	C328.696930,149.726501 325.211212,157.907501 319.641144,160.617905
	C317.440918,161.688538 314.961151,162.184692 312.212097,162.964386
z"/>
<path fill="#0C0406" opacity="1.000000" stroke="none"
	d="
M204.930145,238.843445
	C205.839355,238.407364 206.523453,237.851440 207.035751,237.980026
	C208.911682,238.450836 210.730438,239.149475 212.570724,239.762329
	C211.462799,241.408859 210.716309,243.710739 209.170486,244.563248
	C206.109955,246.251068 202.607849,247.138184 198.138519,247.550110
	C200.301071,244.712662 202.463623,241.875198 204.930145,238.843445
z"/>
<path fill="#0C0406" opacity="1.000000" stroke="none"
	d="
M172.973602,240.613434
	C179.102890,239.507004 182.063690,241.786545 183.907486,248.869629
	C181.008118,247.895416 178.051392,247.399445 175.702606,245.931030
	C174.231491,245.011353 173.675034,242.628616 172.973602,240.613434
z"/>
<path fill="#000000" opacity="1.000000" stroke="none"
	d="
M320.399292,87.298470
	C320.671295,87.253662 320.770538,87.384453 320.869751,87.515244
	C320.655334,87.501518 320.440887,87.487793 320.399292,87.298470
z"/>
<path fill="#000000" opacity="1.000000" stroke="none"
	d="
M961.000000,297.994812
	C961.333313,285.252838 961.016052,272.947998 962.173279,260.783417
	C963.466797,247.186417 964.989197,233.466354 971.014648,220.839066
	C971.359680,220.115997 971.601318,219.314499 972.072510,218.685440
	C974.759705,215.098282 976.778870,210.507416 982.444702,211.017593
	C987.497559,211.472565 989.624023,215.424698 991.649963,219.248627
	C996.539734,228.478058 998.505371,238.505768 1000.105652,248.757843
	C1003.175720,268.426331 1003.637939,288.215088 1002.826538,307.973633
	C1002.115540,325.288483 1000.901794,342.720093 994.926392,359.269440
	C993.362549,363.600555 991.129211,367.778748 988.636108,371.663116
	C985.457397,376.615692 977.670105,376.455292 974.639648,370.880432
	C971.086548,364.344177 967.703979,357.330872 966.258362,350.121277
	C963.962219,338.669281 963.238831,326.892700 962.039673,315.233978
	C961.468079,309.677063 961.332886,304.075287 961.000000,297.994812
z"/>
<path fill="#000000" opacity="1.000000" stroke="none"
	d="
M962.100281,396.875580
	C961.554443,396.194183 961.189636,395.312927 960.824829,394.431671
	C961.117554,394.327789 961.410339,394.223877 961.703064,394.119995
	C961.865662,394.660767 962.028259,395.201538 962.401855,395.996399
	C962.502258,396.392273 962.391785,396.533997 962.100281,396.875580
z"/>
<path fill="#000000" opacity="1.000000" stroke="none"
	d="
M664.759766,233.737427
	C657.318542,241.168671 651.015320,243.543259 641.222595,242.663177
	C641.222595,212.649139 641.222595,182.613998 641.223267,152.578583
	C651.932251,150.622513 663.002319,156.667236 669.101196,167.476822
	C673.472473,175.224365 675.475525,183.392654 676.194641,192.297470
	C677.046814,202.849228 675.781738,212.877548 671.874756,222.521729
	C670.281067,226.455612 667.339844,229.843582 664.759766,233.737427
z"/>
<path fill="#000000" opacity="1.000000" stroke="none"
	d="
M797.231934,226.408234
	C799.763489,222.065521 801.585022,217.643082 804.543640,214.196762
	C808.863342,209.165161 814.589539,209.755920 817.808716,215.690552
	C821.055725,221.676620 823.422791,228.176559 825.767944,234.600113
	C826.970398,237.893982 827.582092,241.481964 827.941895,244.990234
	C828.977173,255.084778 829.748352,265.206421 830.655823,275.693176
	C817.101013,275.693176 804.372925,275.693176 791.101746,275.693176
	C790.430542,259.157471 792.937317,242.874115 797.231934,226.408234
z"/>
<path fill="#000000" opacity="1.000000" stroke="none"
	d="
M390.058929,234.913544
	C390.812408,234.863800 391.565857,234.814041 392.475708,235.043747
	C392.462799,235.507660 392.293518,235.692123 391.864441,236.147903
	C391.604645,236.419205 391.187531,236.332260 391.051208,235.931824
	C390.629578,235.325424 390.344238,235.119492 390.058929,234.913544
z"/>
<path fill="#68A1B0" opacity="1.000000" stroke="none"
	d="
M390.074524,235.173553
	C390.344238,235.119492 390.629578,235.325424 390.882843,235.801300
	C390.597260,235.858658 390.343689,235.646103 390.074524,235.173553
z"/>
<path fill="#000000" opacity="1.000000" stroke="none"
	d="
M289.357361,314.005676
	C289.177856,313.456940 289.329285,312.851471 289.774414,312.117004
	C289.941498,312.641663 289.814911,313.295319 289.357361,314.005676
z"/>
<path fill="#000000" opacity="1.000000" stroke="none"
	d="
M133.314484,93.732727
	C132.812546,93.882645 132.059540,93.759995 131.156326,93.284698
	C131.691879,93.108093 132.377655,93.284126 133.314484,93.732727
z"/>
<path fill="#EAEAEA" opacity="1.000000" stroke="none"
	d="
M298.056824,196.015656
	C293.063110,201.290451 287.720184,205.062439 280.387329,204.829071
	C289.543091,200.221771 297.239868,194.283112 299.676910,183.742966
	C301.954956,173.890488 301.030640,164.071045 296.814056,154.968079
	C295.475555,152.078506 291.599670,150.364288 289.296326,148.453491
	C298.768250,148.605774 300.724091,149.971100 303.018707,159.570938
	C306.034210,172.186935 307.022461,184.628113 298.056824,196.015656
z"/>
<path fill="#F5F5F5" opacity="1.000000" stroke="none"
	d="
M263.033142,170.157944
	C265.042664,164.624329 267.777893,162.799103 271.735138,163.981552
	C275.203247,165.017883 277.725098,169.279266 275.934753,172.633377
	C274.747589,174.857437 271.887726,177.370331 269.592957,177.562683
	C265.472931,177.908035 263.242676,174.760986 263.033142,170.157944
z"/>
</svg>