<svg width="323" height="129" viewBox="0 0 323 129" fill="none" xmlns="http://www.w3.org/2000/svg">
<path d="M56.8145 14.3466L60.7292 13.7918L63.0574 13.3187L66.1681 13.6045L68.9079 13.6597L70.6953 14.3706L74.1195 15.1175L76.4454 16.2942L79.1971 17.0603L81.5995 18.9935L87.2323 13.5301L94.7674 10.3793L99.1606 9.74766L100.103 10.7995L99.0577 12.4782L97.0693 20.3576L95.289 25.3984L91.6256 28.9695L86.1747 32.2499L87.0217 33.2754L91.6256 32.4348L95.7077 33.0665L93.3005 37.478L90.0558 39.4713L94.138 41.0491L91.2092 44.3032L85.1385 46.2988L82.9132 54.7594L79.9868 58.9765L75.1101 62.9678L67.5559 65.9409L65.3593 66.0466L60.1262 67.4106H56.9867L54.0555 66.8871L47.3699 67.401L41.3926 64.8914L38.4637 61.4236L36.1116 59.8939L35.7407 59.0077L26.6359 61.109L17.1124 65.1004L13.1355 67.622L17.5312 62.0552L25.485 57.329L34.4868 55.2277L35.5875 51.928L34.0681 47.8742L33.7451 42.6533L34.6711 41.3013L31.7638 40.1029L30.7181 35.5856L34.2763 26.4479H33.02L29.5672 23.2971L28.4162 17.4157L27.684 8.59253L33.6493 14.9998L38.3297 20.9532L39.0572 20.1439L41.4692 19.349L43.862 17.872L46.6592 16.6544L48.4945 15.372L51.9953 14.4907L56.8145 14.3466Z" fill="#D14667"/>
<path d="M49.6599 68.8827L48.1955 76.4451L43.5414 80.9432L41.0792 85.5829L40.9739 90.518L42.6489 93.0396L44.532 94.1948L44.2114 91.1689L44.7426 89.6775L46.4439 89.6103L47.1498 88.4167L48.5089 87.7875L49.2531 88.0733L50.708 87.2616L52.316 87.1535L52.2777 84.8457L53.5339 77.6003L54.2661 67.3073L52.1724 66.5701L49.3464 68.0422L49.6599 68.8827Z" fill="#D14667"/>
<path d="M67.5561 65.941V71.6134L69.1258 79.0701L69.4393 80.7512L68.3936 81.8007L63.0576 83.0615L61.2773 82.9558L58.3461 84.3223L57.1951 85.2661L56.7764 87.3674L58.4514 87.2617L60.0211 88.1023L62.2201 87.8933L63.4739 89.9947L64.4167 88.4169H66.4052L67.8696 89.1541L68.2548 92.0624L72.8946 90.4125L77.2902 86.3179L73.744 90.6887L74.359 93.1455V94.3342L73.4162 97.766L72.9975 100.811L74.2537 104.802L75.8234 108.374L76.2422 110.266L75.6152 111.104L73.1482 113.28L76.1393 113.94L77.9171 113.417L79.4868 114.992L80.9513 113.417L82.2075 113.52L83.9878 115.307L85.7657 113.731L88.259 114.368L88.472 112.293L90.2666 111.104L93.1978 111.841L102.013 113.724L109.696 112.468L117.672 109.8L121.663 105.958L123.336 100.708L123.128 96.1906L122.185 92.5139L119.883 90.3093L117.789 89.6777L116.535 91.5701L116.638 94.4039L114.86 98.6065L113.185 100.288L107.43 101.863L103.138 101.231L98.5339 99.7617L94.2435 96.8198L90.1613 91.0441L83.7772 84.5312L78.7546 75.4991L77.9746 73.4146L79.5921 72.454L83.4638 70.4583L88.9051 66.3613L91.8363 61.844L94.2435 55.1222L94.6623 51.9714L100.209 51.5511L106.593 52.3916L116.954 56.174L123.128 59.6394L126.999 62.1586L129.662 65.1869L129.198 61.6351L128.674 60.7946L128.047 59.8484L117.763 52.0866L105.346 47.8263L95.6026 46.7192L91.5228 47.2452L90.3719 49.5554L90.1613 51.5511L88.5797 57.8335L86.1102 62.1418L83.045 64.9948L80.2191 67.3075L77.1849 68.0424L76.4527 67.9367L75.5099 66.0467L75.1965 63.8397L74.9931 63.357L71.8465 64.26L67.5561 65.941Z" fill="#D14667"/>
<path d="M43.3955 66.7432L45.0561 69.8267L47.2528 72.6629L48.8225 73.6091L49.2412 71.1932L49.66 68.8829L49.033 67.6221L47.37 67.4012L43.3955 66.7432Z" fill="#D14667"/>
<path d="M50.9162 94.9296V100.391L53.2181 105.854L55.3118 109.528L58.0277 112.324L57.719 113.837L57.0562 116.253L54.6849 117.302L48.7459 117.576L47.9873 114.675L47.0445 113.52L46.3123 113.099L42.5436 112.47L40.347 112.891L38.9854 112.156L37.6287 111.937L39.2989 110.58L40.0335 110.054L37.9398 105.854L36.7888 98.2917L39.4042 93.3542L41.6032 91.5698L43.7998 94.089L45.7452 95.1145L46.7287 96.5001L48.2529 94.5141L50.0787 94.3004L51.0215 93.2485L50.9162 94.9296Z" fill="#D14667"/>
<path d="M122.785 86.7744C122.785 86.7744 121.993 87.6029 120.581 86.5534C120.021 86.1356 119.44 85.7393 119.272 85.0693C119.112 84.4305 118.93 83.3618 119.102 82.101C119.102 82.101 120.296 77.3076 115.69 75.0814C115.559 75.0694 115.451 75.4056 115.52 75.5377C116.439 77.2908 115.812 79.5986 115.812 79.5986C114.774 81.0972 114.793 82.1611 114.987 82.8839C117.499 84.6562 116.867 87.1514 116.867 87.1514C116.384 84.613 115.171 84.0126 113.917 83.9622C113.917 83.9622 114.336 88.0304 113.573 91.4141C113.573 91.4141 114.886 92.6797 115.781 92.5837C115.783 92.5765 115.788 92.5717 115.791 92.5669C115.939 91.8416 116.152 91.1332 116.48 90.4463C116.695 89.9924 117.128 89.918 117.487 90.0621C117.533 90.0333 117.581 90.002 117.631 89.978C118.42 89.5842 119.11 90.0357 119.461 90.7177C119.76 90.6456 120.091 90.7249 120.313 91.0539C120.44 91.2436 120.574 91.4285 120.71 91.6159C120.916 91.3181 121.124 91.0059 121.208 90.9747C122.041 90.2854 123.213 88.7941 122.783 86.772L122.785 86.7744Z" fill="#A5EEEF"/>
<path d="M124.604 84.5266C124.573 84.3561 124.338 84.3105 124.25 84.4618C123.319 86.0732 121.945 85.6745 121.945 85.6745C121.098 85.516 120.777 84.7956 120.658 84.224C120.6 83.9503 120.605 83.6669 120.646 83.3907C121.416 78.0065 118.074 76.568 116.43 75.8115C116.408 75.8019 116.389 75.7971 116.37 75.7947C119.638 77.6078 118.787 82.041 118.787 82.041C118.638 83.1385 118.712 84.0127 118.842 84.6443C119.004 85.4488 119.433 86.1933 120.072 86.724C121.316 87.7615 122.266 87.2379 122.266 87.2379C122.443 89.3008 121.151 90.7153 119.899 90.9435C119.95 91.0155 120.569 91.4166 120.622 91.4886C124.585 89.6827 124.874 85.9579 124.604 84.5218V84.5266Z" fill="#6AA4B4"/>
<path d="M124.759 81.4142C124.451 81.0492 123.855 81.2653 123.857 81.7384C123.862 82.7519 123.087 83.8134 122.917 84.0367C122.917 84.0367 122.383 84.7331 122.036 84.2528C121.893 84.0511 121.871 83.7893 121.95 83.5564C122.275 82.5742 122.534 78.4628 119.883 76.4143C119.883 76.4143 118.189 75.0862 114.889 74.2361L114.52 74.2697C114.226 74.2361 113.901 74.3273 114.092 74.5507C114.85 75.4344 116.212 76.5992 114.429 79.3273C114.429 79.3273 113.391 80.8979 113.798 82.6054C113.367 82.5766 112.587 82.5598 111.582 82.687C111.311 82.7207 111.249 83.0809 111.493 83.201C111.539 83.2226 111.589 83.2514 111.637 83.2754C111.608 83.2754 111.591 83.2754 111.591 83.2754C111.914 83.4315 112.18 83.6068 112.407 83.7917C112.843 84.164 113.231 84.6659 113.386 85.3455L113.417 85.504C113.604 86.6544 113.063 87.6918 113.063 87.6918C112.281 90.187 112.747 91.3926 113.451 92.2691C114.058 93.064 114.506 93.2778 115.324 93.6092C115.463 93.2489 115.619 92.8959 115.796 92.5645C115.82 92.4444 116.025 92.3532 116.052 92.2331C115.549 92.0458 114.975 91.808 114.673 91.5871C114.681 91.5775 114.685 91.5679 114.69 91.5607C113.508 90.5833 113.977 89.1087 114.252 88.5131C114.417 88.1553 114.597 87.7999 114.688 87.4156C115.054 85.8402 114.671 84.5122 113.917 83.9598C115.171 84.0103 116.384 84.6131 116.868 87.1491C116.868 87.1491 117.72 84.3273 115.018 82.7087C114.824 81.9858 114.903 80.9988 115.678 79.8148C115.678 79.8148 116.793 78.4147 116.205 76.0564C116.169 75.9099 116.236 75.7803 116.37 75.7923C116.389 75.7923 116.411 75.7995 116.43 75.8091C118.043 76.5511 121.294 77.9536 120.684 83.1001C120.641 83.4555 120.579 83.8086 120.646 84.1592C120.756 84.7379 121.067 85.5064 121.945 85.6721C121.945 85.6721 123.316 86.0708 124.247 84.4618C124.336 84.3105 124.57 84.3513 124.601 84.5242C124.884 86.0156 124.07 89.6923 120.555 91.3998C120.921 91.9137 121.314 92.4228 121.627 92.968C122.122 92.6894 122.101 92.2019 122.5 91.9209C124.319 90.6337 125.539 88.4363 126.063 86.1668C126.599 83.8494 125.625 82.5093 124.757 81.4118L124.759 81.4142Z" fill="black"/>
<path d="M126.19 84.769C126.147 81.1571 123.687 79.5793 123.687 79.5793C124.111 81.6879 123.513 83.2561 122.986 83.8444C122.744 84.1134 122.345 83.8877 122.374 83.5274C122.445 82.6317 122.409 82.0817 122.364 81.5342C122.161 79.0726 120.945 76.6903 118.736 75.4151C115.575 73.5899 112.58 74.0342 112.58 74.0342C116.193 75.247 114.52 78.8397 114.52 78.8397C113.496 80.9242 113.649 82.5668 113.649 82.5668C112.036 82.4732 110.656 82.9342 110.656 82.9342C114.118 83.878 113.113 87.1681 113.113 87.1681C112.544 89.3511 112.481 90.0115 112.575 90.7752C112.62 91.1427 112.706 91.5029 112.864 91.8367C113.601 93.3953 115.293 93.9885 115.956 94.1998C116.068 93.8828 115.721 93.4289 115.86 93.1191L114.446 92.4875L113.573 91.4188L113.915 87.7613L113.831 85.0572L113.202 83.232L114.446 83.2777L114.357 81.7647L114.874 79.6922L115.805 77.0721L115.867 75.3574L117.253 75.857L119.682 77.3483L121.184 79.6778L121.639 82.5164L121.467 83.782L122 84.7498L123.577 84.392L125.089 82.305L125.436 85.5375L124.436 88.2128L121.974 91.6662L121.165 92.2426C121.421 92.61 121.235 92.6796 121.424 93.0807C122.862 92.2714 123.915 91.2867 124.618 90.2493C125.733 88.5994 126.231 87.3242 126.2 84.7714L126.19 84.769Z" fill="black"/>
<path d="M82.9036 82.1895C83.5903 83.311 84.2795 84.4181 85.0643 85.4676L85.2677 84.9897L87.1652 81.0704L82.6308 79.9873L81.3889 80.0641C81.8866 80.787 82.4657 81.4738 82.9036 82.1895Z" fill="#A5EEEF"/>
<path d="M83.4133 82.6988C83.7985 83.316 84.2723 84.0028 84.6863 84.5984L85.4759 83.4481L86.7226 80.9985C86.7226 80.9985 85.0643 82.3098 83.4109 82.7012L83.4133 82.6988Z" fill="#6AA4B4"/>
<path d="M87.8209 80.3309C84.9328 79.4544 82.2384 79.2046 80.8267 79.1326C80.9104 79.2983 81.0037 79.4592 81.1018 79.6201C81.3746 80.062 81.4225 80.1988 81.7383 80.6215C82.973 80.7224 85.1721 81.013 86.3422 81.2915C85.9258 81.9544 84.8921 83.2464 84.1407 84.1469C84.2532 84.3174 84.3729 84.4808 84.4877 84.6489L84.4829 84.6537C84.5954 84.817 84.7102 84.9779 84.8251 85.1388C84.8347 85.1532 84.8442 85.1676 84.8538 85.1796C84.8777 85.1508 84.9041 85.1196 84.928 85.0907C85.0333 85.0619 85.0572 85.1364 85.2199 85.0475C85.9043 84.1614 87.4166 82.0504 88.0865 81.0922C88.2804 80.816 88.1392 80.4294 87.8185 80.3309H87.8209Z" fill="black"/>
<path d="M86.8736 87.1275C87.7972 88.0617 88.7208 88.9815 89.7234 89.822L89.812 89.3105L90.7667 85.0598L86.1055 85.043L84.9138 85.4032C85.5623 85.994 86.2825 86.5295 86.8736 87.1251V87.1275Z" fill="#A5EEEF"/>
<path d="M87.2876 87.6919C87.8021 88.2059 88.5127 88.7558 89.0511 89.2409L89.5584 87.9393L90.2164 85.2688C90.2164 85.2688 88.8094 86.9331 87.29 87.6943L87.2876 87.6919Z" fill="#6AA4B4"/>
<path d="M91.2357 84.1928C88.2255 84.0031 85.5455 84.3729 84.1528 84.6275C84.2725 84.7692 84.4017 84.906 84.5333 85.0405C84.8994 85.408 84.9784 85.5304 85.3804 85.8691C86.6055 85.6841 88.8141 85.4632 90.0153 85.468C89.7593 86.2077 89.0486 87.7038 88.5222 88.7509C88.6705 88.8902 88.8237 89.0247 88.9744 89.1615V89.1688C89.118 89.3008 89.2663 89.4329 89.4147 89.5626C89.4267 89.5746 89.4386 89.5842 89.453 89.5962C89.4697 89.5626 89.4889 89.5266 89.5056 89.493C89.6013 89.4401 89.642 89.5098 89.7808 89.3849C90.245 88.3642 91.238 85.9627 91.6735 84.8772C91.798 84.5626 91.5754 84.2192 91.238 84.1976L91.2357 84.1928Z" fill="black"/>
<path d="M91.013 91.5509C91.8074 92.598 92.6042 93.6331 93.4872 94.5961L93.6427 94.1014L95.143 90.0116L90.5225 89.3848L89.2949 89.5865C89.862 90.2565 90.5057 90.8833 91.013 91.5509Z" fill="#A5EEEF"/>
<path d="M91.2092 92.1056C91.6519 92.6819 92.4296 93.376 92.901 93.9283L93.5734 92.7035L94.5712 90.1411C94.5712 90.1411 92.9297 91.4692 91.2092 92.1056Z" fill="#6AA4B4"/>
<path d="M95.722 89.2118C92.7621 88.6282 90.0558 88.6474 88.6416 88.7147C88.7421 88.8708 88.8498 89.0221 88.9646 89.1734C89.2781 89.5864 89.3403 89.7185 89.6968 90.1052C90.9363 90.0836 93.1521 90.1532 94.3437 90.3141C93.9944 91.0153 93.0923 92.4058 92.4366 93.3736C92.5659 93.5321 92.6999 93.6834 92.8315 93.8395L92.8267 93.8443C92.9535 93.9956 93.0851 94.1445 93.2143 94.2934C93.2263 94.3054 93.2359 94.3198 93.2478 94.3318C93.2694 94.3006 93.2909 94.267 93.3124 94.2358C93.4153 94.1974 93.444 94.2694 93.5996 94.1637C94.193 93.2127 95.4899 90.9625 96.0618 89.9419C96.2269 89.6465 96.0498 89.2766 95.7196 89.2118H95.722Z" fill="black"/>
<path d="M94.9636 96.3347C95.9686 97.0912 96.9712 97.8357 98.036 98.4937L98.0504 97.9966L98.3686 93.8347L93.949 94.4687L92.8699 94.9754C93.5662 95.4437 94.3223 95.852 94.9636 96.3347Z" fill="#A5EEEF"/>
<path d="M95.4158 96.7596C95.9757 97.1751 96.7414 97.6458 97.3205 98.03L97.622 96.726L97.8756 94.1035C97.8756 94.1035 96.8371 95.7221 95.4182 96.7596H95.4158Z" fill="#6AA4B4"/>
<path d="M98.7564 93.071C95.8754 93.3087 93.3892 94.034 92.1042 94.4687C92.2382 94.5863 92.377 94.6992 92.5206 94.8073C92.9178 95.1051 93.0087 95.2107 93.4371 95.4749C94.5737 95.1291 96.6339 94.6128 97.7753 94.4495C97.6341 95.1867 97.1675 96.7045 96.8134 97.7684C96.9737 97.8812 97.1364 97.9845 97.2991 98.0926V98.0998C97.4546 98.2054 97.6126 98.3087 97.7729 98.412C97.7873 98.4216 97.7992 98.4312 97.8136 98.4384C97.8255 98.4048 97.8375 98.3687 97.8495 98.3327C97.9332 98.2703 97.9811 98.3279 98.0935 98.191C98.3926 97.1584 99.0028 94.7449 99.2636 93.6546C99.3378 93.34 99.0794 93.0446 98.7587 93.071H98.7564Z" fill="black"/>
<path d="M99.7565 99.7472C100.802 100.11 101.841 100.46 102.901 100.722L102.748 100.307L101.628 96.7837L98.3352 98.4696L97.6484 99.1732C98.3543 99.3773 99.0889 99.5166 99.7565 99.7472Z" fill="#A5EEEF"/>
<path d="M99.96 100.023C100.628 100.22 101.647 100.717 102.322 100.881L102.157 99.5526L101.496 97.0022C101.496 97.0022 100.939 98.5608 99.9624 100.023H99.96Z" fill="#6AA4B4"/>
<path d="M101.767 100.811C101.81 100.809 101.855 100.811 101.898 100.828C101.936 100.845 101.975 100.854 102.013 100.869C102.111 100.893 102.212 100.917 102.31 100.941V100.948C102.338 100.955 102.358 100.974 102.374 100.996C102.544 101.049 102.717 101.092 102.889 101.128C102.898 101.104 102.906 101.085 102.908 101.085C102.908 101.09 102.908 101.109 102.908 101.131C102.985 101.147 103.061 101.164 103.138 101.179C103.037 99.9105 102.752 97.12 102.633 96.0921C102.594 95.7703 102.25 95.583 101.958 95.7199C100.115 96.5748 98.541 97.5883 97.3972 98.412C97.6963 98.6185 98.005 98.8731 98.1079 99.2189C98.1318 99.2982 98.1127 99.3678 98.0744 99.4206C98.1294 99.4398 98.1821 99.4591 98.2371 99.4783C99.2206 98.765 100.635 97.8188 101.506 97.3505C101.628 98.0902 101.707 99.6776 101.74 100.799C101.747 100.799 101.757 100.804 101.764 100.804L101.767 100.811Z" fill="black"/>
<path d="M105.585 101.33C106.61 101.164 107.624 100.994 108.622 100.737L108.325 100.451L105.963 97.939L103.879 100.883L103.585 101.798C104.26 101.652 104.932 101.436 105.585 101.33Z" fill="#A5EEEF"/>
<path d="M106.375 101.714C107.059 101.587 107.911 101.587 108.586 101.426L107.842 100.314L106.105 98.3376C106.105 98.3376 106.588 99.9659 106.373 101.714H106.375Z" fill="#6AA4B4"/>
<path d="M106.476 96.94C106.299 96.6711 105.906 96.659 105.705 96.9136C104.329 98.6595 103.535 99.8963 102.987 100.939C103.48 101.023 103.968 101.119 104.449 101.246C104.966 100.29 105.585 99.2191 106.035 98.5731C106.476 99.1782 107.26 100.559 107.796 101.544C107.988 101.503 108.175 101.455 108.366 101.409V101.414C108.553 101.371 108.665 101.825 108.849 101.777L109.038 101.808C109.053 101.803 108.952 101.27 108.969 101.265C108.952 101.234 109.189 101.736 109.172 101.702C109.184 101.597 109.385 101.671 109.364 101.493C108.816 100.569 107.093 97.8718 106.478 96.9352L106.476 96.94Z" fill="black"/>
<path d="M111.572 100.225C112.549 99.6176 113.515 99.0052 114.427 98.3111L114.011 98.131L110.596 96.45L109.651 100.468L109.718 101.568C110.347 101.126 110.945 100.612 111.57 100.225H111.572Z" fill="#A5EEEF"/>
<path d="M112.199 99.7327C112.702 99.3365 113.393 98.969 113.872 98.5488L112.795 97.9652L110.543 97.1055C110.543 97.1055 111.63 98.2198 112.199 99.7303V99.7327Z" fill="#6AA4B4"/>
<path d="M114.64 98.2825C113.802 97.7662 111.254 96.3157 110.357 95.821C110.098 95.6769 109.775 95.8378 109.72 96.1284C109.292 98.4266 109.27 100.547 109.318 101.873C109.723 101.722 110.129 101.58 110.539 101.448C110.543 101.443 110.546 101.441 110.551 101.436C110.522 100.343 110.565 98.3882 110.696 97.3339C111.311 97.6365 112.537 98.4194 113.391 98.991C113.527 98.8757 113.661 98.7556 113.795 98.638H113.8C113.932 98.5275 114.216 98.8469 114.343 98.7316L114.511 98.6764C114.523 98.6668 114.212 98.2753 114.224 98.2657C114.197 98.2465 114.602 98.5539 114.575 98.5347C114.539 98.4434 114.736 98.417 114.642 98.2825H114.64Z" fill="black"/>
<path d="M76.7349 62.1707C76.6583 62.2571 76.5817 62.3412 76.5027 62.4228C76.4836 62.4708 76.4621 62.5213 76.4334 62.5693C76.2898 62.8119 76.1271 63.0496 75.9404 63.2609" fill="black"/>
<path d="M76.7612 66.9905C76.8402 67.1514 76.8139 67.454 76.8952 67.6125L76.8378 68.0736C76.9192 68.2273 77.0771 67.9199 77.1608 68.0736C77.1537 68.0616 77.168 68.0856 77.1608 68.0736C77.1848 68.052 77.3834 67.7902 77.4073 67.7686C77.503 67.7542 77.4839 67.9511 77.637 67.891" fill="black"/>
<path d="M48.6214 117.848C48.6214 117.665 48.1644 115.324 48.1644 115.324L47.7073 113.902L46.7478 113.398L45.5131 113.674L44.9197 113.443L43.7759 112.708L42.5436 112.471C42.5436 112.471 42.0387 112.571 41.6726 112.802C41.3065 113.032 40.9404 113.215 40.9404 113.215L39.6147 112.343C39.6147 112.343 39.8899 112.298 38.5188 112.113C37.1477 111.928 37.8033 111.51 36.4011 111.949C34.9989 112.389 34.8625 112.067 34.451 112.617C34.0394 113.167 33.2617 112.708 33.2617 114.039C33.2617 115.369 32.9865 115.873 33.3072 116.517C33.6278 117.158 35.0899 117.756 35.0899 117.756L38.9758 118.306C38.9758 118.306 41.9023 118.443 42.7709 118.443C43.6395 118.443 44.5918 118.686 46.0156 118.076C47.4393 117.466 48.6214 117.845 48.6214 117.845V117.848Z" fill="white"/>
<path d="M70.8389 119.041C70.8389 119.041 71.0686 116.38 71.3414 116.013C71.6141 115.645 72.4851 114.361 72.4851 114.361L73.4447 113.671C73.4447 113.671 74.2223 113.395 74.6339 113.441C75.0455 113.486 75.0455 113.395 75.6844 113.717C76.3233 114.039 76.3233 113.993 76.5075 114.039C76.6918 114.084 77.9193 113.414 77.9193 113.414C77.9193 113.414 77.7422 113.076 78.3835 113.626C79.0224 114.176 79.2066 114.361 79.5727 114.543C79.9389 114.726 80.0298 114.313 80.0298 114.313L80.9558 113.414C80.9558 113.414 80.5323 113.213 81.5827 113.486C82.6332 113.763 82.3149 113.486 82.9538 113.991C83.5927 114.495 83.8679 114.495 84.0498 114.632C84.2316 114.769 84.5523 114.541 84.5523 114.541L85.9688 113.76C85.9688 113.76 86.4713 113.578 86.792 113.715C87.1126 113.851 87.0671 113.393 87.5696 113.991C88.0721 114.586 88.1176 114.313 88.4382 115.689C88.7589 117.065 88.8953 117.936 88.8953 117.936C88.8953 117.936 89.1704 119.036 87.5696 119.449C85.9688 119.862 85.4663 119.817 84.5977 119.999C83.7291 120.182 85.5572 120.136 82.1283 120.412C78.6994 120.689 79.2952 120.734 77.0555 120.595C74.7679 120.453 73.8395 120.273 73.5811 120.273C73.3059 120.273 71.662 119.769 71.662 119.769L70.8389 119.034V119.041Z" fill="white"/>
<path d="M55.8 89.1732L56.2116 91.971L57.5373 93.6689L58.1307 93.8514L58.6332 92.934L60.0952 93.8057L60.6886 94.4013L61.44 94.6079L61.83 93.4383L62.5527 92.4825C62.5527 92.4825 62.378 91.3754 62.9259 92.6122C63.4739 93.8514 63.2466 94.2188 63.7945 94.5382C64.3425 94.86 63.8855 94.9513 64.7541 95.1338C65.6227 95.3163 66.2496 95.6381 66.2496 95.6381C66.5367 94.9056 67.1397 93.5392 67.1397 93.5392L68.0012 92.1991C68.0012 92.1991 68.0012 90.8687 67.9557 90.6862C67.9102 90.5037 67.4077 89.447 67.4077 89.447L66.4027 88.4143C66.4027 88.4143 65.8524 88.1165 65.1226 88.5272C64.3904 88.9403 64.0721 89.0315 63.8879 89.1228C63.706 89.214 63.3854 89.399 63.249 89.2597C63.1126 89.1204 62.3349 88.2054 62.3349 88.2054C62.3349 88.2054 61.9688 87.9748 61.5118 87.9748C61.0547 87.9748 60.4158 88.0205 60.3225 88.1574C60.2292 88.2943 59.2721 87.7443 59.2721 87.7443L58.2671 87.3312C58.2671 87.3312 57.6282 87.0551 57.1712 87.3312C56.7141 87.6074 55.9819 88.2486 55.9819 88.2486L55.8 89.166V89.1732Z" fill="white"/>
<path d="M44.5535 93.6235L46.8554 96.27L48.437 93.6715L49.8991 94.5433L51.2702 91.6518L52.5503 93.0735L53.6463 91.2772L53.6917 89.1903L52.8231 87.9367L51.6793 87.0193L49.8967 87.4323L49.8057 87.8454L49.5306 88.3954L48.7529 88.3041L47.3363 88.1216C47.3363 88.1216 47.0612 88.076 46.7884 88.489C46.5156 88.9021 46.2859 89.452 46.2859 89.452C45.647 89.5889 45.5082 89.4064 45.0512 89.5889C44.5941 89.7714 43.771 90.4607 43.771 90.4607L43.9529 91.6999C43.9529 91.6999 44.2735 92.4804 44.319 92.7085C44.3644 92.9366 44.5487 93.6259 44.5487 93.6259L44.5535 93.6235Z" fill="white"/>
<path d="M76.242 110.266L73.6195 102.699L73.4161 97.766L75.0528 93.7122L73.8875 90.3861L67.6278 92.9917L66.4577 96.0489L64.218 94.5215L62.7631 92.0023L61.4423 94.6104L59.7577 92.7612L58.4943 93.6594L56.6063 92.0047L56.2498 89.7569L56.7858 87.8717L57.6807 84.9947L61.2772 82.9558L65.9193 82.7492L69.5899 81.0417L67.0822 66.0322H64.3065L58.3077 68.0111L54.4767 68.0663L54.101 69.7186L52.8472 81.3996L52.0408 86.8823L54.0101 89.0388L53.9216 91.8246L52.8472 93.1718L51.4306 92.3433L50.8755 100.093L54.4576 108.988L60.3679 113.931L65.7398 115.369H71.6502L73.7104 112.314L75.6151 111.104L76.242 110.266Z" fill="#EFCA81"/>
<path d="M77.917 72.9536L85.8876 69.4473L91.1709 62.8888L93.4083 57.4974L94.7506 51.2966L102.183 51.5656L112.391 53.9911L120.45 57.5862L124.831 60.9604L120.361 62.5286V64.8652L120.091 68.6404L114.719 69.5386L111.407 71.3349L108.452 75.8282L103.884 75.0189L98.3327 75.1101L94.6621 78.1649L92.7215 80.881L88.5053 76.2268L80.4247 75.0189L78.7545 75.4992L77.917 72.9536Z" fill="#A5EEEF"/>
<path d="M89.508 77.7013C89.508 77.7013 94.9445 68.2897 95.3753 63.6091L94.9589 70.8161L93.8319 76.0995L93.5495 79.9683L93.3605 80.5351L92.1377 80.6287L89.5056 77.7037L89.508 77.7013Z" fill="#6AA4B4"/>
<path d="M96.5547 56.2798C96.5547 56.2798 97.8732 61.9474 101.257 67.7975C101.257 67.7975 103.231 71.0996 103.231 74.8724L108.119 76.4766L107.179 73.0808L105.58 69.212L102.197 64.8724L98.6245 60.0622L96.5547 56.2798Z" fill="#6AA4B4"/>
<path d="M35.4537 52.3219C35.4537 52.3219 35.2958 56.3109 39.1842 56.5942L40.2753 54.4953L37.4254 53.1601L35.3987 51.8896L35.4537 52.3219Z" fill="#871A41"/>
<path d="M62.9642 60.6313C62.9642 60.6313 64.096 65.3263 59.028 67.1515L56.0632 66.8609L57.5205 65.4632L59.4204 64.5098L61.2557 63.4291C61.2557 63.4291 61.8252 62.9848 61.952 62.7927C62.0788 62.6006 62.9642 60.6313 62.9642 60.6313Z" fill="#871A41"/>
<path d="M105.861 58.7412C105.861 58.7412 112.345 62.4203 115.166 69.0245L119.208 69.3079L119.115 67.7998L117.329 65.6312L110.845 59.8771L105.863 58.746L105.861 58.7412Z" fill="#6AA4B4"/>
<path d="M50.27 69.685C50.27 69.685 52.5504 69.7474 54.132 69.368L54.2589 67.4612L50.8036 67.4804L49.7627 67.5885L50.27 69.685Z" fill="#871A41"/>
<path d="M67.2522 68.0953C67.2522 68.0953 72.5069 67.7134 75.6104 65.8066L75.2299 63.0112L67.2522 65.235V68.0953Z" fill="#871A41"/>
<path d="M42.8834 47.3508C42.8834 47.3508 42.1416 39.9781 37.0879 39.9109L40.5623 43.5996L41.4692 49.4473V51.2725L41.7228 51.3854L42.479 50.5953L42.8834 47.3484V47.3508Z" fill="black"/>
<path d="M81.5995 34.8076C81.5995 34.8076 82.5734 40.5929 77.1225 40.4608L76.7229 38.5924C76.7229 38.5924 80.2236 39.0271 81.5971 34.8076H81.5995Z" fill="#871A41"/>
<path d="M29.0695 19.3493C29.0695 19.3493 31.3619 24.0827 35.9442 23.6769L34.0562 26.9237L31.7639 25.3675L30.4167 23.8786L29.7419 22.1879L29.0671 19.3469L29.0695 19.3493Z" fill="#871A41"/>
<path d="M84.4997 35.9293C84.4997 35.9293 90.0344 33.864 93.8533 35.987L94.9756 34.1618L95.5044 33.1363C95.5044 33.1363 92.6162 32.6729 92.4152 32.6729C92.2142 32.6729 88.8427 32.8746 88.8427 32.8746L87.6965 33.0091L86.146 33.3477L84.4973 35.9269L84.4997 35.9293Z" fill="#871A41"/>
<path d="M84.4399 40.3504C84.4399 40.3504 89.9315 40.2328 92.0994 43.2899L93.8319 41.0613L91.2045 39.7092H90.1947L88.3068 39.3706L86.7562 39.4378L84.4399 40.3504Z" fill="#871A41"/>
<path d="M69.1162 78.8612C69.1162 78.8612 71.1238 78.525 72.3753 76.6494C72.3753 76.6494 72.6815 79.5889 69.3005 81.1691L69.1162 78.8612Z" fill="#871A41"/>
<path d="M47.5327 95.6431C47.5327 95.6431 47.5327 95.7368 47.5327 95.9145C47.5447 97.7853 47.8964 108.823 54.6107 113.025C54.6107 113.025 55.5535 116.068 53.1966 116.611L56.6136 116.587L57.6449 114.987L57.7214 113.837L58.3173 113.227L58.7217 112.348L56.6997 110.725L51.9834 105.314L51.1746 99.1589L51.0406 94.0869L49.3632 94.8386L48.7076 93.9692L47.8988 94.8074" fill="#871A41"/>
<path d="M115.451 109.36C110.149 111.512 105.507 111.447 101.805 110.701C98.4118 110.014 96.4784 107.105 96.5525 103.763C96.5717 102.934 96.5143 98.6737 95.9232 98.0421L93.5423 96.0945L93.5543 101.272L93.0375 106.287L89.9268 111.126L90.2235 111.498L92.7407 111.997L92.9417 112.403C92.9417 112.403 93.0111 112.341 93.1308 112.216L93.9539 112.675C93.9539 112.675 96.6507 113.352 99.0746 113.688C101.501 114.027 100.963 113.755 101.635 113.755C102.307 113.755 105.475 113.554 105.475 113.554L108.912 112.675L111.675 111.796L114.348 111.114L117.198 108.662L115.451 109.358V109.36Z" fill="#871A41"/>
<path d="M87.5625 26.0444C87.5625 26.0444 92.1161 26.4046 95.6551 22.3244L96.3921 21.5799L97.4019 16.1021L93.8294 20.2951L88.9097 23.542L88.3713 25.2999L87.5625 26.0444Z" fill="#871A41"/>
<path d="M45.056 89.5863C45.056 89.5863 41.5768 85.7223 45.1158 80.4966L41.4548 83.3808L40.9954 89.0772L41.9381 92.12L43.2853 93.203L44.3621 93.6617C44.3621 93.6617 44.8789 94.2261 44.5511 93.6209C44.2233 93.0157 44.0271 92.1896 44.0271 92.1896L43.8261 90.9048L44.1802 90.4893L45.056 89.5839V89.5863Z" fill="#871A41"/>
<path d="M70.121 90.9531C70.121 90.9531 70.6953 86.921 65.5459 87.7207L67.4482 88.799L68.0273 90.0045C68.0273 90.0045 68.0727 91.0972 68.2043 91.3422L68.3383 91.5871L70.1234 90.9531H70.121Z" fill="#871A41"/>
<path d="M46.0442 82.8909C46.0442 82.8909 49.1812 80.4341 52.2799 82.1728L51.9808 85.1579L50.4303 83.669C50.4303 83.669 48.5375 82.8212 46.0442 82.8885V82.8909Z" fill="#871A41"/>
<path d="M43.3093 65.9842L45.7117 70.8593L48.8224 73.6091L47.5638 77.1081L44.702 79.3031L37.8058 76.2628L32.3381 77.2474L28.3828 72.7157L25.3534 71.5342L21.5464 72.2426L21.8216 67.9895L20.4385 64.6538L19.1296 64.7811L23.1664 62.5861L30.2324 60.0525L35.7408 59.0078L39.8229 63.028L41.3927 64.8915L43.3093 65.9842Z" fill="#A5EEEF"/>
<path d="M46.9273 76.4743C46.9273 76.4743 43.5701 73.4796 42.4167 68.9287L43.0748 73.0785L43.7328 77.8888L44.1085 79.3969L45.6112 78.7365L46.9273 76.4719V76.4743Z" fill="#6AA4B4"/>
<path d="M35.3675 76.4741C35.3675 76.4741 34.7358 71.9184 37.4349 67.6077L34.1448 71.7575L32.5464 75.343L31.9194 78.28L35.3675 76.4741Z" fill="#6AA4B4"/>
<path d="M25.7793 71.7573C25.7793 71.7573 25.3103 67.3241 32.8286 63.8323L26.6239 65.9072L20.7974 71.3779L22.3958 71.9446L25.7793 71.7549V71.7573Z" fill="#6AA4B4"/>
<path d="M53.9551 106.198C53.9551 106.198 59.4347 113.352 68.2954 111.755C70.6667 111.328 72.1431 108.924 71.4492 106.606L70.4586 103.294C70.4586 103.294 68.4246 96.9352 74.2919 93.4026L73.1194 98.7412L73.9808 102.98L74.3397 106.265L75.8712 109.181L76.2516 110.516L74.6101 111.851L72.6289 113.705L72.1072 114.755C72.1072 114.755 71.0113 114.911 70.6213 114.99C70.2312 115.069 67.0224 115.461 67.0224 115.461C67.0224 115.461 65.9265 115.696 64.364 115.225C62.7991 114.755 62.6435 114.834 61.8611 114.44C61.0786 114.048 60.3966 113.792 59.2146 113.057C58.0325 112.322 55.9172 111.063 55.9172 111.063L53.2588 107.139L53.9623 106.198H53.9551Z" fill="#BE9853"/>
<path d="M54.1009 69.7187C54.1009 69.7187 60.4491 71.1861 66.7854 68.2802L67.8574 65.3816L63.8135 65.8475L57.2427 67.5742L54.266 67.3076L54.0339 68.6741L54.0985 69.7187H54.1009Z" fill="#BE9853"/>
<path d="M33.7451 42.6533C33.7451 42.6533 31.7877 54.8074 40.1986 55.2445L41.3591 53.3521L41.7228 51.3876L41.2873 46.5846L40.5623 43.5995L39.1122 41.7791L37.4444 41.27L35.9225 41.5606L33.7474 42.6533H33.7451Z" fill="black"/>
<path d="M39.2988 47.2645C40.0243 47.2645 40.6125 46.5979 40.6125 45.7756C40.6125 44.9532 40.0243 44.2866 39.2988 44.2866C38.5733 44.2866 37.9851 44.9532 37.9851 45.7756C37.9851 46.5979 38.5733 47.2645 39.2988 47.2645Z" fill="white"/>
<path d="M49.4062 62.2379C49.4062 62.2379 49.32 60.5736 51.1529 59.3465C51.1529 59.3465 52.5503 58.7341 52.8997 59.6971C52.8997 59.6971 53.2491 60.749 51.0668 61.2749C51.0668 61.2749 49.844 61.4502 49.4085 62.2379H49.4062Z" fill="black"/>
<path d="M45.8144 62.3387C45.8144 62.3387 45.891 60.9002 44.3069 59.8411C44.3069 59.8411 43.1009 59.3104 42.7994 60.1437C42.7994 60.1437 42.4979 61.0515 44.3835 61.5054C44.3835 61.5054 45.4387 61.6567 45.8168 62.3387H45.8144Z" fill="black"/>
<path d="M81.5996 34.8076C79.1159 38.4819 75.7037 37.041 75.7037 37.041C80.6832 35.4656 79.1805 30.8066 79.1805 30.8066C78.6756 33.7077 76.7613 34.8724 74.9882 35.1822C74.5168 35.2639 74.0383 35.2615 73.5669 35.1894C69.0731 34.5122 66.3524 36.9209 66.3524 36.9209C60.478 40.8906 61.3179 53.1024 61.3179 53.1024C61.3179 53.1024 64.8138 53.9381 69.2741 53.2417C72.4422 52.747 75.4046 50.9986 76.8139 48.1096C77.8596 45.9627 78.1372 43.2297 77.4145 39.0751C81.0756 38.6164 81.5972 34.8124 81.5972 34.8124L81.5996 34.8076Z" fill="black"/>
<path d="M67.1898 44.1976C68.1175 44.1976 68.8696 43.4063 68.8696 42.4301C68.8696 41.4539 68.1175 40.6626 67.1898 40.6626C66.2621 40.6626 65.51 41.4539 65.51 42.4301C65.51 43.4063 66.2621 44.1976 67.1898 44.1976Z" fill="white"/>
<path d="M74.1817 37.2262C73.6433 37.0005 72.6886 36.7459 71.3343 36.914C71.3343 36.914 72.4015 37.111 73.3036 37.6177C73.617 37.793 73.8611 38.0716 73.9999 38.4054C74.3971 39.3684 75.1891 41.7315 74.8685 44.6157C74.5287 47.6921 72.8298 49.4284 69.9392 50.8381C69.2477 51.1743 68.4413 51.3976 67.5583 51.4721C67.5583 51.4721 69.1161 51.6522 71.5544 50.694C73.9999 49.7334 75.6174 47.4519 75.9189 44.8967L75.9429 44.8871C75.9429 44.8871 76.3664 41.2656 74.9235 37.9683C74.7776 37.6369 74.5167 37.3655 74.1841 37.2238L74.1817 37.2262Z" fill="white"/>
<path d="M62.8779 60.259C62.4592 61.5222 61.5403 62.2786 61.5403 62.2786C61.5403 62.2786 58.5493 65.367 52.2848 66.1979C50.0594 66.4933 47.7934 66.3997 45.6279 65.8113C43.9003 65.343 41.974 64.5073 40.8422 63.0231C40.8422 63.0231 37.5999 59.3872 41.237 55.2446C41.8328 54.5673 42.3306 53.8061 42.644 52.9583C43.1465 51.6015 43.5174 49.5362 42.7972 46.9161C42.7972 46.9161 42.8642 49.015 42.1224 50.4343C42.1224 50.4343 42.4909 46.7576 40.7154 42.8167C40.3325 41.969 39.5309 41.0252 38.7557 40.5136C38.0043 40.0213 36.9682 39.6419 35.7239 39.9589C35.1903 40.0958 34.6304 40.1726 34.0968 40.0453C32.6156 39.6947 31.2278 37.7447 32.0294 33.8926C32.0294 33.8926 34.7333 19.9398 51.3947 16.2487L53.4956 13.8447C53.4956 13.8447 33.2808 16.6569 30.0577 34.0631C30.0577 34.0631 28.7966 40.8643 33.6039 41.676C32.7783 42.3508 29.4714 43.4339 28.3037 40.1438C28.3037 40.1438 28.4832 45.3743 33.8431 43.6572C33.8431 43.6572 34.6711 43.5732 36.4801 42.3628H38.4111L39.9808 43.5131L40.5838 44.7235L40.9451 46.8441L41.0647 48.662L41.0049 50.4175L41.2466 52.4156L41.0504 52.8214C40.6125 53.7268 40.0598 54.5698 39.4376 55.3575C38.6264 56.3805 37.5616 58.3353 38.1862 61.0659C38.7198 63.3929 40.3469 65.331 42.5076 66.3276C44.0725 67.0505 46.3338 67.6797 49.4541 67.6797C49.4541 67.6797 57.5132 67.9054 61.7605 63.7123C62.1505 63.3281 62.4711 62.8766 62.6889 62.3747C63.2392 61.1019 62.8803 60.2566 62.8803 60.2566L62.8779 60.259Z" fill="black"/>
<path d="M38.9734 21.1022C38.8059 20.7516 34.7931 12.4567 27.9759 8.13158C27.6912 7.95146 27.3275 7.95627 27.0475 8.14599C26.7675 8.33571 26.6264 8.67192 26.6862 9.00573C26.6934 9.05136 27.5835 12.7065 27.5045 16.4889C27.4806 17.6824 27.5572 18.8736 27.7941 20.0431C28.3396 22.7424 29.749 26.7626 33.3598 27.716C33.4364 27.7376 33.5153 27.7472 33.5919 27.7472C34.0083 27.7472 34.3863 27.435 34.4366 26.9787C34.4821 26.5585 34.1877 26.179 33.7833 26.0613C31.3929 25.3673 30.2324 22.8241 29.6724 20.6843C29.3255 19.3587 29.1795 17.9922 29.1699 16.621C29.158 14.9495 28.9833 13.1243 28.7991 11.6474C28.756 11.3088 29.1508 11.0927 29.4116 11.3136C34.4127 15.5883 37.4085 21.7674 37.442 21.8395C37.6454 22.2645 38.1527 22.4423 38.5762 22.2405C38.9997 22.0364 39.1768 21.5273 38.9758 21.1022H38.9734Z" fill="black"/>
<path d="M28.4926 15.3625L29.1674 16.6209C29.1674 16.6209 29.0214 21.1502 33.6253 23.4341C33.6253 23.4341 29.8159 23.4341 28.7582 19.1858L28.1768 15.4682L28.495 15.3625H28.4926Z" fill="black"/>
<path d="M40.4499 54.092C40.4499 54.092 37.1238 56.8562 38.1839 61.0685C38.1839 61.0685 38.9592 67.7807 49.5642 68.2995C50.5142 68.3451 51.4689 68.3211 52.4165 68.2394L54.4767 68.0641L53.2755 66.5175L47.492 66.9642L43.3093 65.982L41.2635 64.3754L39.5741 62.2332L39.2176 59.2865L39.7512 56.6088L40.201 55.2448L40.4523 54.0944L40.4499 54.092Z" fill="black"/>
<path d="M39.2463 61.1789C39.2463 61.1789 34.4654 59.0199 36.126 52.3533L35.176 49.8533C35.176 49.8533 30.6679 59.4978 40.0407 63.7821L39.2463 61.1789Z" fill="black"/>
<path d="M80.2691 21.208C79.8216 21.818 79.6326 22.1926 79.6326 22.1926L80.2691 21.208Z" fill="black"/>
<path d="M84.3633 44.9326C82.7649 63.9334 65.3737 64.6467 65.3737 64.6467C60.3918 67.3244 55.9435 66.2533 55.9435 66.2533L51.5837 66.7L51.5718 67.3724C59.0159 69.6515 65.5532 66.5967 65.5532 66.5967C83.1214 64.8196 86.0718 50.4681 86.2154 45.4225C85.5549 45.5426 85.0357 44.9038 84.3633 44.9326Z" fill="black"/>
<path d="M97.5431 8.93371C97.4902 8.93606 97.5937 8.92192 97.5431 8.93371V8.93371Z" fill="black"/>
<path d="M98.3232 9.14732C97.5431 9.15692 96.7511 9.20015 95.9997 9.40428C80.7118 13.5517 79.6375 22.1924 79.6375 22.1924C80.4654 20.9724 82.3677 19.1401 83.3535 18.1578C85.3563 16.2966 89.9339 12.788 97.4665 10.9028C98.4476 10.6579 98.7467 11.4552 98.4763 12.118C98.0001 13.2827 96.9162 15.4849 96.6865 17.423C96.6865 17.423 95.9543 26.1549 85.0596 31.2125C85.0596 31.2125 84.9352 33.494 84.7486 35.4272C85.2535 35.3407 85.9833 33.9695 86.4858 33.871C86.7729 33.7965 86.3829 33.6861 86.6724 33.6212L86.2537 32.8335C86.2537 32.8335 94.5185 31.0372 98.1605 19.2361C98.3303 18.6814 98.4763 18.1218 98.6151 17.5574C98.8568 16.5776 99.4861 14.289 100.613 11.7938C101.455 9.92781 99.9982 9.1209 98.3208 9.14251L98.3232 9.14732Z" fill="black"/>
<path d="M99.0433 10.9775C99.0433 10.9775 97.0573 14.9664 94.7123 17.8867C94.595 18.0332 94.4778 18.1821 94.3629 18.331C93.6403 19.2844 89.8333 23.8521 83.3511 23.708C83.3511 23.708 90.4243 25.8285 95.7915 18.8929C95.7915 18.8929 97.5813 16.6091 98.5552 14.6494L99.1247 13.098L99.5315 11.2201L99.0433 10.9751V10.9775Z" fill="black"/>
<path d="M88.3929 23.218C88.3929 23.218 86.9285 27.2982 83.1885 27.3799C83.1885 27.3799 87.9861 28.9312 90.0177 23.1364L90.5058 22.4832L88.3929 23.218Z" fill="black"/>
<path d="M51.3899 16.251C51.3899 16.251 72.6671 11.4431 80.5874 20.2783L81.8077 18.7269C81.8077 18.7269 77.1967 12.495 60.2434 13.0593L53.4932 13.8446L51.3923 16.2486L51.3899 16.251Z" fill="black"/>
<path d="M97.2608 32.7232C90.2043 30.1944 85.9067 32.9826 85.9067 32.9826L85.2606 32.8409L84.5021 35.9293C88.7829 32.3174 94.6813 33.8111 94.6813 33.8111C93.2767 36.5152 90.8838 37.8625 89.6228 38.4653C89.1801 38.6766 88.7087 38.8207 88.2254 38.912C86.0048 39.3322 84.4399 40.3529 84.4399 40.3529C89.7472 39.0416 92.9465 41.5032 92.9465 41.5032C89.5343 45.24 84.3657 44.935 84.3657 44.935L85.0836 46.8658C92.4129 46.3471 95.715 41.0133 95.715 41.0133C94.3726 40.0815 93.1953 39.5484 91.75 39.0825C95.4733 37.2597 97.2631 32.728 97.2631 32.728L97.2608 32.7232Z" fill="black"/>
<path d="M67.4913 88.2077C66.9218 87.8211 66.2279 87.6722 65.5435 87.7226C63.1626 87.8979 62.8157 90.4412 62.8157 90.4412C62.696 91.5387 62.6721 92.4536 62.9616 93.0756C64.0958 95.9671 66.7615 96.1832 66.7615 96.1832C66.6705 94.4661 67.5176 93.3998 67.5176 93.3998L67.9866 92.8763L68.257 92.0622L68.3383 91.5891L68.592 91.3705C68.8983 89.5886 68.1732 88.6688 67.4937 88.2077H67.4913ZM66.9768 92.3336C65.9766 93.6376 65.9694 95.0449 65.9694 95.0449C65.2061 94.7087 64.6988 94.2187 64.3614 93.736C63.914 93.0948 63.7082 92.3119 63.7249 91.529C63.7345 91.0415 63.8135 90.7125 63.8135 90.7125C64.2585 88.5776 66.2231 89.0098 66.2231 89.0098C67.3262 89.2236 67.4961 90.4388 67.5104 91.0631C67.4386 91.7116 66.9792 92.336 66.9792 92.336L66.9768 92.3336Z" fill="black"/>
<path d="M43.9697 92.915L44.2281 93.0182L44.4387 93.3785L44.8981 93.9572L45.4102 94.243C45.4102 94.243 46.3769 94.8554 46.8554 96.2699C46.8554 96.2699 48.7554 95.3117 48.674 92.6412C48.6908 92.0528 48.3797 91.3204 47.9418 90.4678C47.9418 90.4678 46.8722 88.513 45.0584 89.0701C44.5368 89.231 44.0702 89.5552 43.7735 90.0355C43.4193 90.6071 43.1753 91.5653 43.9697 92.915ZM44.6708 92.3482C44.4817 91.8415 44.2209 90.8064 44.9675 90.3093C44.9675 90.3093 46.2812 89.3823 47.2909 90.9769C47.2909 90.9769 47.4537 91.2195 47.6164 91.6109C47.8772 92.2401 47.9753 92.9318 47.8509 93.5826C47.7552 94.0725 47.5374 94.6176 47.078 95.1148C47.078 95.1148 46.6233 93.9812 45.4676 93.22C45.4676 93.22 44.9292 92.8525 44.6684 92.3482H44.6708Z" fill="black"/>
<path d="M50.5643 89.0604C50.5643 89.0604 49.5378 87.0839 47.7097 87.6026C47.1832 87.7515 46.7118 88.0661 46.4056 88.5392C46.2404 88.7938 46.0969 89.1276 46.0586 89.5431C46.1806 89.5383 46.3098 89.5551 46.4414 89.6103C46.6783 89.7064 46.8889 89.8385 47.0756 89.9946C47.0564 89.5623 47.1665 89.1108 47.5948 88.8394C47.5948 88.8394 48.9276 87.9413 49.9039 89.5575C49.9039 89.5575 50.0618 89.8024 50.215 90.1987C50.4638 90.8327 50.5476 91.5267 50.4064 92.1751C50.3011 92.6627 50.0714 93.203 49.6024 93.6905C49.6024 93.6905 49.198 92.6194 48.138 91.8389C48.2433 92.2544 48.2959 92.6819 48.3079 93.0877C48.6261 93.4047 49.0831 93.9763 49.3559 94.8384C49.3559 94.8384 51.2774 93.921 51.2487 91.2482C51.2774 90.6622 50.9831 89.9201 50.5619 89.0604H50.5643Z" fill="black"/>
<path d="M53.4502 88.0472C53.4502 88.0472 52.4715 86.1668 50.7343 86.6615C50.2342 86.8032 49.7843 87.1034 49.4924 87.5525C49.3991 87.699 49.3129 87.8719 49.2507 88.0712C49.6144 88.285 49.904 88.5635 50.1289 88.8902C50.1217 88.4939 50.2318 88.0856 50.6242 87.8359C50.6242 87.8359 51.89 86.9809 52.8209 88.5179C52.8209 88.5179 52.9716 88.7509 53.1176 89.1279C53.3545 89.7307 53.4334 90.3911 53.3018 91.0083C53.2013 91.4742 52.9812 91.9857 52.5361 92.4492C52.5361 92.4492 52.1269 91.3613 51.043 90.6144C51.043 90.6144 50.9042 90.5136 50.7391 90.3527C50.8276 90.7465 50.8779 91.15 50.9018 91.5462L50.9664 91.5847C50.9664 91.5847 51.8733 92.1874 52.3016 93.5419C52.3016 93.5419 54.1297 92.6678 54.1034 90.1269C54.1297 89.5674 53.8498 88.8637 53.4502 88.0448V88.0472Z" fill="black"/>
<path d="M62.9091 87.9676C62.4832 87.593 61.9376 87.4177 61.3873 87.4153C59.4706 87.4081 58.9442 89.6199 58.9442 89.6199C58.7695 90.5661 58.7504 91.3394 58.937 91.8989C59.6357 94.4878 61.7534 94.8528 61.7534 94.8528C61.8036 93.3543 62.5574 92.4825 62.5574 92.4825L62.969 92.0574L63.2441 91.3682L63.3422 90.9623L63.5624 90.7894C63.9357 89.2621 63.4212 88.4119 62.9115 87.9676H62.9091ZM62.6531 89.5479C62.8134 90.2131 62.6459 90.9191 62.2415 91.4691C62.2176 91.5027 62.2032 91.5195 62.2032 91.5195C61.3538 92.6242 61.1863 93.6977 61.1863 93.6977C60.6431 93.3014 60.4158 93.0565 60.1502 92.5762C59.8272 91.995 59.7314 91.2938 59.8008 90.6141C59.8439 90.1915 59.93 89.9105 59.93 89.9105C60.3033 88.7313 61.1121 88.556 61.5476 88.5512C61.7319 88.5512 61.9161 88.5872 62.074 88.6785C62.4019 88.8658 62.5717 89.1996 62.6555 89.5455L62.6531 89.5479Z" fill="black"/>
<path d="M59.3915 90.6936C59.3628 90.7368 59.3389 90.78 59.3077 90.8208C59.2838 90.8545 59.2695 90.8713 59.2695 90.8713C58.42 91.976 58.2525 93.0494 58.2525 93.0494C57.7093 92.6532 57.482 92.4082 57.2164 91.9279C56.8934 91.3468 56.7977 90.6455 56.867 89.9659C56.9101 89.5432 56.9963 89.2622 56.9963 89.2622C57.3695 88.0831 58.1783 87.9078 58.6138 87.903C58.7981 87.903 58.9823 87.939 59.1402 88.0303C59.4681 88.2176 59.638 88.5514 59.7217 88.8972C59.7289 88.9308 59.7337 88.9669 59.7408 89.0029C59.9371 88.6643 60.2266 88.4073 60.6238 88.292C60.4755 87.8502 60.2266 87.5356 59.9777 87.317C59.5518 86.9424 59.0062 86.7671 58.4559 86.7647C56.5392 86.7575 56.0128 88.9693 56.0128 88.9693C55.8381 89.9155 55.819 90.6888 56.0056 91.2483C56.7043 93.8371 58.822 94.2022 58.822 94.2022C58.8651 92.9366 59.4082 92.1225 59.5757 91.8967C59.4729 91.5173 59.4082 91.1018 59.3939 90.6911L59.3915 90.6936Z" fill="black"/>
<path d="M57.4581 87.6387C57.4581 87.6387 57.5467 84.6897 60.911 83.8323C61.3728 83.7147 61.849 83.6642 62.3252 83.6498C63.5982 83.6138 67.4459 83.3736 69.889 81.7982C69.889 81.7982 72.4804 79.9923 72.3751 76.647C72.3751 76.647 72.222 81.8006 62.6506 82.1537C61.8059 82.1849 60.9852 82.3818 60.1692 82.6003C58.444 83.0614 55.3022 85.4125 56.0511 89.4039L57.4581 87.6363V87.6387Z" fill="black"/>
<path d="M50.5309 67.3628L49.9542 67.6653L48.9253 66.3757L48.8726 67.5669C48.8726 67.5669 49.1813 74.9276 44.3765 79.2263C44.1252 79.452 44.2257 79.3728 43.9697 79.5961C43.1968 80.2757 38.9567 84.8531 40.4067 90.6479C40.4067 90.6479 40.5766 91.4404 41.2634 92.4419C42.2851 93.9284 43.8692 94.9322 45.6327 95.2925C46.0227 95.3717 46.3075 95.4198 46.3075 95.4198L45.1613 93.645C45.0823 93.621 45.0058 93.597 44.9292 93.5706C43.5437 93.0975 42.5029 91.9303 42.1009 90.5182C40.7657 85.8209 43.7519 82.1105 44.9747 80.7488C45.1733 80.5279 45.3862 80.3238 45.6088 80.1293C51.2822 75.1173 50.5285 67.3628 50.5285 67.3628H50.5309Z" fill="black"/>
<path d="M44.1803 90.4919L43.7736 90.0356C43.7736 90.0356 42.6752 91.6615 44.3646 93.6643L45.0705 94.4352C45.0705 94.4352 46.3913 95.0212 46.7287 96.5005C46.7287 96.5005 48.3247 95.8233 48.6621 93.3257L47.894 94.8051L47.035 95.4223L46.42 94.5601L45.683 93.7892L45.1303 93.3569L44.4244 92.2474L44.2091 91.1692L44.1779 90.4919H44.1803Z" fill="black"/>
<path d="M45.7453 95.1146L46.2382 95.1747L45.8075 94.4974L45.3169 94.3438H44.9173L44.8862 94.776L45.7453 95.1146Z" fill="black"/>
<path d="M51.3851 86.9161C51.3851 86.9161 50.9544 82.5789 46.0466 82.8887C46.0466 82.8887 52.2824 80.6913 52.9093 88.0928L51.3875 86.9161H51.3851Z" fill="black"/>
<path d="M52.6319 86.5459C52.6319 86.5459 54.6179 88.4935 54.3427 90.8134C54.3427 90.8134 53.9719 93.0852 52.17 93.921C52.17 93.921 52.17 93.0396 51.4307 92.3432C51.4307 92.3432 50.9688 94.4301 49.3058 95.3115C49.3058 95.3115 49.0737 94.3845 48.7052 93.9666C48.7052 93.9666 48.6119 96.0535 46.4416 96.9805C46.4416 96.9805 46.5349 95.7293 45.3792 94.8936L45.3193 94.3436L46.9058 95.1722L47.0398 95.4219L47.5064 94.663L48.107 93.4575L48.3152 93.0876L48.6143 92.9027L49.1216 93.3662C49.1216 93.3662 49.3058 93.5992 49.3991 93.7385C49.4925 93.8777 49.6312 93.9714 49.6312 93.9714L50.1385 93.5992L50.6003 92.6722L50.9042 91.5531L51.2919 91.4666H51.6628L52.2179 92.2543L52.4955 92.6722L53.1415 91.9757L53.6488 91.2793L53.6034 90.2587L53.6967 89.1924L53.1894 88.0781L52.6343 87.336V86.5483L52.6319 86.5459Z" fill="black"/>
<path d="M56.2592 88.0256C56.2592 88.0256 56.2497 88.0424 56.2329 88.076C56.075 88.3954 55.271 90.1918 56.1324 92.149C56.1324 92.149 57.0824 94.1831 58.9847 94.4353C58.9847 94.4353 58.8603 93.8421 59.2168 92.9943C59.2168 92.9943 59.8437 94.7763 62.0523 95.2086C62.0523 95.2086 61.892 93.9117 62.5907 92.831C62.5907 92.831 63.3803 96.0899 66.9696 96.3613C66.9696 96.3613 66.8093 94.8315 67.7042 93.4795L67.8645 93.2633L67.3261 93.1024L66.716 93.6596C66.716 93.6596 66.5006 94.5049 66.4647 94.6682C66.4288 94.8315 66.2494 95.6408 66.2494 95.6408L65.443 95.2806L64.6007 94.5793L63.7584 93.5707L63.1841 91.8608L62.7534 91.6087L62.215 92.185C62.215 92.185 61.8753 92.526 61.7125 92.8863C61.5498 93.2465 61.4613 93.2633 61.4254 93.6235C61.3895 93.9838 61.3177 94.272 61.3177 94.272C61.3177 94.272 61.1383 94.1999 60.8703 94.0198C60.6023 93.8397 60.2601 93.5347 60.2601 93.5347L59.7576 92.7614L59.3819 92.0049C59.3819 92.0049 59.1139 91.88 59.023 92.1658C58.9321 92.4516 58.9153 92.418 58.7717 92.723C58.6282 93.028 58.5923 92.9559 58.5564 93.1721L58.5205 93.3882L58.1975 93.405C58.1975 93.405 57.5873 93.0448 57.5514 92.9919C57.5155 92.9391 57.4078 92.9199 57.3001 92.7038C57.1925 92.4876 56.9053 92.0193 56.9053 92.0193L56.6732 91.1188L56.5847 90.5064L56.7809 89.2648L56.9604 88.1673L56.2616 88.0232L56.2592 88.0256Z" fill="black"/>
<path d="M48.887 115.362C48.887 115.251 48.8847 115.139 48.8775 115.018L48.7578 114.91C48.1046 111.685 45.7213 112.141 44.9221 112.591C44.032 111.712 43.0964 111.683 43.0964 111.683C42.2278 111.659 41.5314 112.012 40.9763 112.562C39.9187 111.02 38.4327 111.625 38.4327 111.625C38.1551 111.712 37.9111 111.841 37.6814 111.99C37.6646 111.973 37.6479 111.957 37.6287 111.937C37.387 112.216 37.1932 112.187 36.9659 112.473C36.9324 112.518 36.7793 112.766 36.6333 112.987C36.1452 113.734 35.7838 114.557 35.5804 115.427C35.4488 115.986 35.3771 116.491 35.334 116.815C35.3651 117.194 35.4129 117.466 35.4369 117.759H35.5063V118.188H39.7464V118.522H48.0854L47.894 118.489C48.0376 118.443 48.4061 118.33 48.5473 118.28C48.966 118.133 48.9875 118.34 49.0665 117.903C49.0785 117.835 49.0857 117.771 49.0928 117.703L49.1287 116.587C49.0426 116.459 48.9588 115.655 48.8823 115.362H48.887ZM38.9591 117.295C37.6526 117.422 36.9109 117.069 36.5591 116.803C36.863 114.761 37.4612 113.729 37.9685 113.208C38.6241 112.533 39.7751 112.744 40.1173 113.623C40.1268 113.645 40.134 113.666 40.1412 113.686C39.421 114.963 39.0907 116.517 38.9615 117.295H38.9591ZM43.9674 113.474C43.8621 113.803 43.7544 114.13 43.6491 114.459C43.6084 114.581 43.5486 114.682 43.4792 114.766C43.2352 115.703 42.9169 116.656 42.8738 117.627C41.2682 117.895 40.4642 117.742 40.1077 117.627C40.7705 112.936 42.9145 112.867 42.9145 112.867C43.3476 112.893 43.7113 113.068 44.0033 113.294C44.02 113.313 44.0391 113.34 44.0559 113.364C44.0272 113.4 43.9985 113.438 43.9721 113.474C43.9721 113.474 43.9721 113.474 43.9721 113.472L43.9674 113.474ZM47.5279 117.019C47.5279 117.019 47.5016 117.305 47.4992 117.31C46.834 117.542 45.64 117.708 44.1277 117.73C44.0607 117.73 44.008 117.675 44.0104 117.61C44.0344 117.089 44.0391 116.615 44.4842 115.299C44.8025 114.593 45.1925 114.19 45.5395 113.947C46.1831 113.498 46.8579 113.746 47.1475 114.449C47.2336 114.658 47.3078 114.872 47.3724 115.078C47.4872 115.516 47.5901 116.169 47.5279 117.017V117.019Z" fill="black"/>
<path d="M88.3233 113.371L87.816 113.405C86.7799 112.643 85.5452 113.073 85.0379 113.436C84.8441 113.575 84.6455 113.707 84.5043 113.902C84.3703 114.084 84.2531 114.272 84.1406 114.461C83.0208 112.826 81.6162 112.876 81.6162 112.876C80.7236 112.905 80.0321 113.342 79.4961 113.986C78.3188 112.35 76.8329 113.117 76.8329 113.117C76.5553 113.229 76.3112 113.39 76.0839 113.57C75.7322 113.222 75.11 112.783 74.2965 112.857C74.0955 112.852 73.904 112.864 73.7222 112.891C72.856 113.023 72.0903 113.532 71.5686 114.238L71.1092 114.86C70.2573 116.704 70.5349 117.888 70.5349 117.888C70.4607 118.472 70.7574 119.397 71.2839 119.656C71.8342 119.925 72.7507 120.155 74.2701 120.131C74.2701 120.131 75.5766 120.816 78.472 120.816C78.472 120.816 80.7667 121.551 83.8272 120.631C84.1287 120.54 84.4421 120.499 84.7556 120.508C85.5644 120.532 87.0336 120.155 88.8713 119.296C89.3163 119.087 89.2685 119.267 89.357 118.996C89.357 118.996 89.4719 116.157 88.3281 113.376L88.3233 113.371ZM74.0428 118.707C73.6624 118.76 72.9732 118.782 72.028 118.494C71.9299 118.462 71.8653 118.366 71.8749 118.263C71.9371 117.598 72.1525 116.032 72.8799 114.983C73.2316 114.476 73.7796 114.12 74.3946 114.084C74.708 114.065 75.0526 114.128 75.3302 114.38C74.3635 115.775 74.1074 117.768 74.0452 118.707H74.0428ZM77.711 119.346C76.3806 119.574 75.5958 119.228 75.2201 118.959C75.5862 114.555 77.309 114.255 77.309 114.255C78.2303 114.255 78.5964 114.997 78.7041 115.28C78.0413 116.74 77.7972 118.479 77.711 119.346ZM82.9346 119.26C80.8337 119.774 79.4219 119.485 78.9721 119.361C79.4865 113.861 81.4941 114.195 81.4941 114.195C81.9416 114.195 82.3221 114.365 82.6379 114.598C82.8581 114.855 83.1763 115.376 83.3462 116.342C82.9921 117.581 82.937 118.715 82.9346 119.26ZM87.9979 118.155C87.6796 118.323 86.2487 118.947 84.4302 119.156C84.4302 118.52 84.3703 118.035 84.7771 116.438C85.0595 115.636 85.4351 115.165 85.7773 114.874C86.4114 114.337 87.1173 114.565 87.4547 115.326C87.5552 115.552 87.6437 115.782 87.7227 116.008C87.8663 116.486 88.0146 117.204 87.9979 118.15C87.9979 118.15 87.9979 118.153 87.9955 118.155H87.9979Z" fill="black"/>
<path d="M94.6644 102.314C94.9132 97.1271 93.0062 93.5584 91.5346 91.4571C90.9076 90.5613 90.1515 89.7664 89.3355 89.0388C88.5555 88.3447 87.9405 87.6411 87.3782 87.0215C86.5622 86.1185 85.3347 84.5527 84.6647 83.5369C74.3707 67.9126 77.1607 61.8103 77.1607 61.8103L75.3206 62.8982C75.0072 65.8929 75.9763 70.7127 76.7324 73.0206C77.7518 76.133 78.1514 78.6882 77.6441 81.6613C77.6226 81.7838 77.601 81.9038 77.5795 82.0215C76.9597 85.2468 75.0287 88.1454 72.143 89.692C69.6472 91.0296 67.977 91.0296 67.977 91.0296L67.4697 93.0301C74.1673 92.2136 77.0531 87.2376 77.0531 87.2376C79.8288 83.2631 79.3837 77.8044 79.3837 77.8044C80.2427 79.5287 81.9751 82.5931 82.5662 83.5969C83.8607 85.8015 84.4446 86.2482 86.0813 88.0541C86.299 88.2919 86.7273 88.7554 86.9427 88.9355C89.9672 91.4691 92.0418 94.3437 92.9272 98.9354C93.2048 100.376 93.1114 101.906 93.1114 101.906C92.8889 109.221 87.2753 111.692 87.2753 111.692C87.2753 111.692 87.6581 112.876 87.5624 114.123L89.18 116.015C89.18 116.015 89.0962 114.046 88.8713 112.564C94.4801 109.704 94.6668 102.314 94.6668 102.314H94.6644Z" fill="black"/>
<path d="M73.9639 113.448C73.9639 113.448 75.1603 111.121 78.6778 110.782C78.6778 110.782 74.2199 109.613 72.1023 113.827C72.1023 113.827 71.9443 114.238 71.9443 114.349C71.9443 114.459 73.9639 113.448 73.9639 113.448Z" fill="black"/>
<path d="M32.515 115.163C32.515 115.163 32.3523 116.318 32.4743 117.521H34.8863V117.569H34.982V117.761H35.5061V118.191H36.48L36.2694 117.257L35.987 116.848L36.2383 116.628C36.2383 116.628 34.5202 117.101 33.4219 116.44C33.4219 116.44 33.5727 111.5 37.6166 112.946L37.9611 112.725L38.009 111.925C38.009 111.925 33.9986 110.489 32.515 115.163Z" fill="black"/>
<path d="M42.8115 118.184C42.8115 118.184 42.8737 114.325 44.2328 113.129L44.3573 113.674C44.3573 113.674 43.96 115.602 43.9194 115.667C43.8787 115.732 43.3331 117.869 43.3331 117.869L43.3116 118.477L42.8091 118.184H42.8115Z" fill="black"/>
<path d="M47.2622 112.521C47.2622 112.521 48.9755 112.942 49.332 117.281L49.3536 117.848L48.9779 117.953L48.7482 117.576L48.4132 116.172L47.535 114.094L47.2622 112.521Z" fill="black"/>
<path d="M38.009 111.925C38.009 111.925 39.7797 109.668 44.4027 110.403C43.2326 109.786 39.4782 108.193 35.1926 112.081C35.1926 112.081 36.2503 111.949 36.401 111.949C36.5518 111.949 37.6261 111.937 37.6261 111.937L37.9468 112.199L38.009 111.925Z" fill="black"/>
<path d="M41.0887 110.228C41.0887 110.228 40.1818 108.71 39.2271 106.078C38.6934 104.606 38.1216 102.809 37.9325 101.256C37.576 98.2968 38.246 94.2262 41.4763 92.1633L41.3256 89.8123C41.3256 89.8123 32.1969 94.7858 37.5066 106.938C37.5066 106.938 38.0976 108.455 39.1648 110.823L41.0887 110.228Z" fill="black"/>
<path d="M76.9071 110.948C76.9071 110.948 76.7731 109.613 75.3039 105.919C75.3039 105.919 73.8514 103.097 73.7892 99.6871C73.7342 96.678 75.3159 93.6761 77.7614 91.9302C79.3622 90.7847 80.8768 90.1051 83.2936 89.8121C83.2936 89.8121 74.8086 88.9955 72.332 96.9398C72.332 96.9398 71.1954 101.524 73.8873 106.733C74.3659 107.658 74.7751 108.618 75.067 109.62C75.2967 110.408 75.3565 111.308 75.4259 111.88L76.9047 110.948H76.9071Z" fill="black"/>
<path d="M122.692 95.9866C122.692 95.9866 122.709 95.9794 122.74 95.9674L122.766 95.7512L122.692 95.9866Z" fill="black"/>
<path d="M46.1351 70.2902C45.3048 69.111 44.7807 67.7422 44.5821 66.3084C44.1179 66.0731 43.6657 65.8161 43.2278 65.5496C43.2828 65.9722 43.3379 66.3709 43.3953 66.7431C43.5652 67.8334 43.9265 68.8853 44.4745 69.8387C45.8336 72.2066 47.4009 73.8732 48.7911 75.0236C49.0089 74.5961 49.1955 74.159 49.3654 73.7123C47.9225 72.5716 46.8625 71.3252 46.1351 70.2926V70.2902Z" fill="black"/>
<path d="M50.0211 67.867C49.9924 67.8262 49.9637 67.7878 49.9374 67.7469C49.0831 67.7565 48.2217 67.6293 47.3699 67.4011C47.5972 67.9006 47.858 68.3857 48.1619 68.8444C48.6142 69.5241 49.2363 70.3214 50.0211 71.0851V67.867Z" fill="black"/>
<path d="M44.9363 80.499C44.9363 80.499 44.7281 77.7396 43.5867 74.3631C43.5867 74.3631 42.4501 70.3597 42.2898 66.8535C42.2898 66.8535 41.9165 71.4116 42.8497 75.5903C42.8497 75.5903 43.6154 78.6858 43.5389 80.9432L43.8236 81.6925L44.9339 80.499H44.9363Z" fill="black"/>
<path d="M39.8227 63.0281C38.868 64.4882 37.4897 66.335 35.8267 67.8095C35.5228 68.0785 35.2452 68.3763 34.994 68.6957C33.9244 70.0669 31.4143 73.6212 31.0769 77.1586L31.5028 78.2922L31.9216 78.2801L32.661 77.711C32.661 77.711 33.0175 73.3594 36.8245 68.5252C36.8245 68.5252 38.7699 65.9123 40.1362 63.2946C40.0309 63.2058 39.928 63.1169 39.8251 63.0281H39.8227Z" fill="black"/>
<path d="M30.596 63.7604C29.5671 63.9837 29.1819 64.1566 27.3418 64.757C25.0494 65.5063 22.2737 67.6028 21.6229 70.5351L20.8931 71.7767L21.5463 72.2426L23.1232 71.7623C23.1232 71.7623 23.1376 68.2368 29.9954 65.086C29.9954 65.086 32.9171 63.8973 35.3434 62.4299C34.0992 62.9126 32.6132 63.3257 30.5937 63.7628L30.596 63.7604Z" fill="black"/>
<path d="M78.6252 73.9743C78.6252 73.9743 88.0865 72.2644 92.5707 79.3321L91.8433 79.2048L87.1892 76.4022L82.9084 75.6554L79.233 75.4752L78.6276 73.9743H78.6252Z" fill="black"/>
<path d="M51.5 84.7907C51.9857 85.1797 52.1221 86.1715 52.3901 86.7239C54.6394 77.9175 54.6179 67.5429 54.6131 67.4541L53.2013 67.334C53.2061 67.4156 53.5339 75.4391 51.5 84.7907Z" fill="black"/>
<path d="M54.5054 106.976C51.4856 102.985 51.3803 96.4717 51.7344 92.1081C51.4449 91.8944 51.1697 91.6494 50.9209 91.3853C50.8682 92.0913 50.7366 92.7805 50.3753 93.4626C50.3131 93.5778 50.2389 93.6667 50.1528 93.7363C49.9733 97.867 50.349 103.146 52.7323 106.978H54.503L54.5054 106.976Z" fill="black"/>
<path d="M70.4488 81.0155C67.9842 72.8623 67.8573 65.48 67.8549 65.3792L66.3977 65.396C66.4025 65.8186 66.5293 73.2754 69.0825 81.5822C69.5347 81.3829 69.9918 81.198 70.4488 81.0131V81.0155Z" fill="black"/>
<path d="M72.9446 90.7272C73.2341 91.4597 73.995 93.3617 74.3588 94.3343L75.7227 93.8204C75.359 92.8453 74.3875 90.8809 74.0931 90.134C73.6624 90.3622 73.4255 90.6119 72.947 90.7272H72.9446Z" fill="black"/>
<path d="M62.6746 108.153C56.4245 108.153 53.1009 106.793 52.8975 106.707L53.4622 105.36L53.1798 106.032L53.4622 105.357C54.5318 105.804 59.808 108.551 74.1651 105.319L74.4833 106.745C69.8053 107.797 65.8619 108.15 62.677 108.15L62.6746 108.153Z" fill="black"/>
<path d="M61.2053 97.819C54.7542 97.819 51.0549 96.5654 50.8228 96.4838L51.3013 95.1029C51.3851 95.1317 59.8127 97.9679 73.4662 94.9492L73.7797 96.3757C68.8768 97.4588 64.6462 97.8166 61.2029 97.8166L61.2053 97.819Z" fill="black"/>
<path d="M58.0348 81.7599C55.0533 81.7599 53.2802 81.3853 53.1462 81.3565L53.4549 79.9276C53.5147 79.9396 59.5854 81.2052 68.3815 78.9021L68.75 80.3166C64.4046 81.4549 60.7292 81.7599 58.0372 81.7599H58.0348Z" fill="black"/>
<path d="M66.8023 115.761C66.8023 115.761 66.8214 115.756 66.8334 115.756C66.8908 115.756 66.9459 115.758 67.0033 115.761C68.4581 115.768 69.9202 115.754 71.3439 115.434C71.454 115.41 71.5425 115.456 71.5975 115.528L72.6265 113.703C72.6265 113.703 70.2001 114.514 67.6565 114.44C63.7849 114.327 60.6503 113.218 57.676 110.557C54.3834 107.61 53.0267 104.421 53.0267 104.421L52.2825 103.299L51.9714 104.668L52.7395 106.971C54.6921 110.348 57.2979 112.502 59.0088 113.503C59.2074 113.352 59.4419 113.302 59.6931 113.436C59.8295 113.508 59.9468 113.611 60.076 113.693C60.2339 113.794 60.3966 113.89 60.5617 113.981C61.2652 114.366 62.0142 114.659 62.7536 114.966C62.8086 114.988 62.8421 115.024 62.8613 115.062C63.2322 115.165 63.6078 115.254 63.9859 115.338C64.7109 115.482 65.436 115.617 66.1634 115.756C66.3764 115.756 66.5917 115.756 66.8047 115.758L66.8023 115.761Z" fill="black"/>
<path d="M48.9658 116.76C48.9658 116.76 57.2642 117.266 56.5057 113.681C56.5057 113.681 57.1254 113.285 58.0251 112.324L59.1522 112.663L59.2096 113.059L58.2525 114.132C58.2525 114.132 57.4222 114.445 57.324 115.417L57.1446 116.282L55.3236 117.069C55.3236 117.069 52.9021 117.466 52.6771 117.466C52.4522 117.466 48.6978 117.833 48.6978 117.833L47.4392 117.466L48.7337 116.392L48.9634 116.76H48.9658Z" fill="black"/>
<path d="M44.9172 94.3438C44.9172 94.3438 46.6688 95.559 46.2692 97.2713C46.2692 97.2713 48.3342 96.7165 48.8224 94.572C48.8224 94.572 49.1071 95.2564 49.1645 95.7151C49.1645 95.7151 50.7031 94.8337 51.1003 93.3496L51.2128 92.6316C51.2128 92.6316 52.0096 92.975 52.0671 94.1733C52.0671 94.1733 55.8573 92.3506 53.8306 88.0566L53.4334 87.7781L53.3185 88.4073L53.6033 90.2588C53.6033 90.2588 53.6392 90.9529 53.6487 91.2795C53.6583 91.6061 53.4884 92.0624 53.2611 92.3482C53.0338 92.634 52.8639 92.8621 52.8639 92.8621L52.2369 92.634L51.555 92.0048L51.0429 91.8342L50.873 92.5187C50.873 92.5187 50.5691 92.8309 50.4758 93.1479C50.3825 93.4649 50.4136 93.5273 50.16 93.7363C49.9063 93.9452 49.679 94.1757 49.679 94.1757L49.5091 94.4039L49.1669 93.7747L48.9396 93.376L48.6668 93.3304L48.485 93.9476C48.485 93.9476 48.3701 94.3462 48.2576 94.5191C48.1452 94.6921 48.1667 94.3006 47.8987 94.8097C47.6307 95.3189 47.0397 95.4269 47.0397 95.4269L47.0062 95.6046L46.7214 95.0331L46.0945 94.5191L44.9196 94.3486L44.9172 94.3438Z" fill="black"/>
<path d="M55.9912 87.8333C55.9912 87.8333 54.3976 90.9168 56.5033 93.2007C56.5033 93.2007 57.5274 94.2861 59.1785 94.6272C59.1785 94.6272 59.0636 94.0556 59.2359 93.6569C59.2359 93.6569 60.1452 95.2564 62.3657 95.4845C62.3657 95.4845 62.3083 94.3414 62.593 93.5441C62.593 93.5441 63.555 96.2098 66.972 96.3611C66.972 96.3611 67.0007 93.9355 68.099 93.1478C68.099 93.1478 71.6811 92.228 73.4996 90.8015L73.7437 90.6887L67.5414 92.0599L66.1201 95.3716L64.2991 94.058L62.7629 92.0023L61.3966 93.8299L60.26 93.5345L59.1785 91.9447L58.4965 93.6569L57.5872 92.7444L56.6779 91.6012L56.5846 90.5086L56.5631 89.375L56.733 88.2799L55.996 87.8333H55.9912Z" fill="black"/>
<path d="M33.5392 40.4082C33.5392 40.4082 32.0915 45.6243 34.1972 51.8947C34.1972 51.8947 33.4291 55.1439 34.5418 57.2429L35.5875 51.9307L34.738 48.1915L34.281 45.5018L34.6734 41.304L33.5416 40.4082H33.5392Z" fill="black"/>
<path d="M37.3055 111.114C37.3055 111.114 31.7374 110.05 31.9575 117.653C31.9575 117.653 33.3526 118.657 35.6425 118.53C35.6425 118.53 36.9538 119.344 39.306 119.156C39.306 119.156 40.8039 119.615 43.3858 119.26C43.3858 119.26 46.2428 119.37 48.7338 118.53C48.7338 118.53 54.0435 118.373 56.4985 117.129C57.147 116.8 57.7189 116.311 58.0587 115.667C58.274 115.261 58.3147 114.742 58.2453 114.204L59.8892 112.951L58.8938 112.384L57.1111 113.671L57.2355 114.906L56.6397 115.681L55.1226 116.815L51.3372 117.391L48.9754 117.615L47.1329 117.821L44.0677 118.251H41.6438L39.2916 118.037L37.4395 117.535L35.5157 117.033L34.1948 116.995L33.2832 116.618L33.2353 115.532L33.7354 113.457L35.2333 112.026L36.6595 111.596L37.3079 111.111L37.3055 111.114Z" fill="black"/>
<path d="M58.0778 112.953C58.0778 112.953 63.969 117.55 72.1262 115.376L71.7936 114.867H67.3022L63.1674 114.08L59.3197 112.435L58.0754 112.951L58.0778 112.953Z" fill="black"/>
<path d="M89.1943 111.851L89.247 111.752L89.2278 111.76L89.1943 111.851Z" fill="black"/>
<path d="M89.2471 111.753L89.3212 111.731C89.3045 111.721 89.2901 111.714 89.2734 111.705L89.2471 111.75V111.753Z" fill="black"/>
<path d="M89.5965 111.109C89.5965 111.109 89.2663 111.491 89.2136 111.673C89.2328 111.683 89.2519 111.695 89.2734 111.707L89.5965 111.109Z" fill="black"/>
<path d="M89.2135 111.673C89.0508 111.582 88.9695 111.529 88.9695 111.529L89.2255 111.76C89.2016 111.745 89.1992 111.714 89.2112 111.673H89.2135Z" fill="black"/>
<path d="M113.433 53.8611C113.433 53.8611 113.433 53.8611 113.436 53.8611C113.429 53.8589 113.418 53.8546 113.433 53.8611Z" fill="black"/>
<path d="M33.4341 41.4863C33.4341 41.4863 29.5936 52.6966 39.2966 55.1318L40.1053 54.5746L38.8419 51.0756L37.1239 47.8288L35.9107 43.1626L35.6068 41.8946L33.4341 41.4887V41.4863Z" fill="black"/>
<path d="M35.0804 41.8802C35.0804 41.8802 33.8744 44.4859 34.5708 47.8576C34.5708 47.8576 34.1137 42.7159 37.6288 41.7409C37.6288 41.7409 36.7937 41.2534 35.0804 41.8802Z" fill="white"/>
<path d="M114.645 50.1485C114.563 50.1125 114.477 50.0789 114.393 50.0429C114.255 49.9852 114.118 49.9252 113.979 49.8676C111.185 48.8397 108.804 48.1409 106.143 47.5093C102.791 46.784 100.06 46.5463 98.0455 46.3157C96.7031 46.162 95.3512 46.126 94.004 46.2221C93.7001 46.2437 93.4225 46.2653 93.1952 46.2821C91.4437 46.419 90.0821 48.1481 89.9051 49.9036C88.3665 65.2926 77.5125 67.7709 75.5791 67.9558L76.0242 69.9443C76.0242 69.9443 87.182 68.7267 90.9411 54.637C91.0488 54.2359 91.1302 53.8301 91.202 53.4218L91.7667 50.1942C91.8839 49.529 92.2596 48.9214 92.8339 48.5707C92.8817 48.5419 92.9272 48.5155 92.9727 48.4915C93.4895 48.2249 94.0686 48.088 94.6525 48.0592C94.6525 48.0592 103.69 47.5789 113.829 51.736C122.388 55.4079 126.085 59.1975 128.049 62.2618C128.368 62.7565 128.676 63.2056 128.92 63.6403C124.936 59.5385 119.811 56.7167 116.016 54.978C116.028 54.9756 116.04 54.9708 116.052 54.966C115.233 54.5962 114.358 54.2239 113.431 53.8637C113.436 53.8637 113.439 53.8661 113.429 53.8637L113.343 53.8301C108.251 51.8488 101.687 50.1846 94.9348 50.8834C94.1571 50.9627 93.5613 51.5919 93.5206 52.3483C93.5206 52.3555 93.5206 52.3603 93.5206 52.3676L93.468 53.1504C93.468 53.1504 91.9318 69.6777 77.412 71.9208L77.5891 73.4553C77.5891 73.4553 92.2022 72.3746 94.9779 53.4002C95.1406 52.8935 95.5952 52.5116 96.1623 52.4564C97.3013 52.3483 99.1414 52.2379 101.206 52.3844C101.585 52.4108 101.963 52.4516 102.336 52.5092C106.346 53.1264 110.168 54.015 114.003 55.6192C116.272 56.6423 119.806 58.3786 122.718 60.3742C120.629 60.6984 119.294 62.6028 119.244 66.0899C116.624 62.7373 112.604 60.1029 110.306 59.0846C109.347 58.6595 108.347 58.3353 107.325 58.0856C102.147 56.8296 98.5839 54.7114 98.5839 54.7114C101.625 57.3387 107.368 59.5289 107.368 59.5289C113.807 62.3219 117.018 66.5509 118.145 68.3281C115.319 67.8454 113.075 68.866 112.795 69.0005C110.67 69.9659 109.34 71.5413 108.509 73.1023C107.459 69.8747 105.277 66.9688 104.226 65.6936C103.92 65.3214 103.583 64.978 103.212 64.6658C99.2276 61.318 96.5524 56.2772 96.5524 56.2772C97.5885 59.8867 102.01 65.5111 102.01 65.5111C105.451 69.6561 106.602 73.5034 106.968 75.2277C105.322 74.0965 103.633 73.7555 102.798 73.6571C100.462 73.3761 97.2702 73.8348 95.411 75.4966C94.9492 75.9097 94.552 76.3348 94.1978 76.7598C94.4347 75.1244 94.7649 73.7891 94.7649 73.7891C95.8608 68.9141 95.3703 63.6091 95.3703 63.6091C95.2076 67.6965 93.8652 72.3674 93.8652 72.3674C92.9296 75.098 92.5348 77.7204 92.3793 79.0773C90.7043 76.8367 88.6512 75.5783 86.7465 74.8794C84.2795 75.4606 81.5349 74.805 79.0415 74.7209C78.7568 74.7473 78.4649 74.769 78.1682 74.7834C78.2399 74.9443 78.3261 75.1436 78.417 75.3549C78.4553 75.3477 78.4888 75.3405 78.5295 75.3381C80.3385 75.2469 82.4346 75.0619 84.2125 75.4462C84.4278 75.4918 84.1838 75.5759 84.2867 75.7104C88.5124 76.6854 91.1278 79.6873 92.274 81.3131C92.5491 81.7022 93.1474 81.6181 93.3077 81.169C95.0616 76.2459 99.4621 75.4774 99.4621 75.4774C103.551 74.6561 106.27 76.4044 107.538 77.5331C107.914 77.8669 108.502 77.6892 108.634 77.2041C109.998 72.233 113.278 70.7296 113.278 70.7296C115.803 69.5024 118.236 69.8506 119.868 70.379C120.715 70.6528 121.543 69.9203 121.385 69.0413C120.287 63.0015 122.575 62.1369 122.575 62.1369C123.376 61.7239 124.324 61.9424 125.137 62.5068C126.645 63.5466 128.729 65.4487 130.449 68.1696L131.067 69.0774C131.349 69.4904 131.993 69.2911 131.995 68.7916L132 67.6917C132 67.2882 130.916 57.149 114.642 50.1509L114.645 50.1485Z" fill="black"/>
<path d="M44.6995 80.3334C44.2473 79.3367 43.5127 78.1408 42.3282 77.0577C40.7825 75.6432 38.1455 75.2662 36.2193 75.5207C35.4536 75.6216 33.8169 75.9818 32.3357 77.245C31.8524 75.4343 30.6966 72.8646 27.9377 71.5822C27.6721 71.4525 25.2649 70.3358 22.4605 71.318C22.5968 70.7969 22.6997 70.2182 22.7356 69.5914C22.8529 67.6149 22.1709 65.4463 20.4361 64.6538C27.8826 60.8258 36.0016 59.906 36.1092 59.894L36.0494 58.4219C35.5206 58.4795 24.6691 59.7571 16.0141 65.2902C16.3396 64.9108 16.7105 64.5145 17.1388 64.1087C19.7278 61.6471 24.8772 58.321 34.7166 56.4646L34.6759 54.6731C14.7507 58.4651 12.2909 68.2441 12.2095 68.6548L12.0109 69.6706C11.9104 70.1821 12.5278 70.5159 12.8987 70.1509L13.1236 69.8651C13.8151 69.0198 15.6409 66.7888 18.2299 66.1716C18.6367 66.0731 19.0698 66.0755 19.4622 66.2268C19.4622 66.2268 22.0058 66.5222 20.6921 72.4083C20.5725 72.9463 21.0941 73.3954 21.6062 73.1936C22.8313 72.7133 24.7767 72.2354 26.691 72.9463C26.691 72.9463 30.2348 73.8829 31.2039 78.6835C31.2972 79.1422 31.8404 79.3343 32.2041 79.0437C33.391 78.1023 35.7718 76.6782 38.8443 77.2138C38.8443 77.2138 41.8497 77.5164 43.5414 80.941L43.2495 81.659C43.3021 81.8031 43.3476 81.9352 43.3859 82.0577C44.2736 80.8401 45.293 79.7258 46.4176 78.7195C46.6282 78.429 46.834 78.1336 47.0397 77.8382C46.2094 78.4674 45.4102 79.2815 44.7043 80.3334H44.6995Z" fill="black"/>
<path d="M71.8535 115.155L71.1069 114.855C71.1069 114.855 70.0852 116.544 70.267 119.406C70.279 119.598 70.3987 119.766 70.5757 119.843C71.071 120.062 72.2005 120.508 73.8108 120.508C73.9592 120.508 74.11 120.528 74.2511 120.576C74.6962 120.727 75.9907 121.099 77.8811 120.972C78.0749 120.96 78.2663 120.994 78.4554 121.037C79.0966 121.183 80.9343 121.416 83.6765 120.782C83.8153 120.751 83.9589 120.727 84.1001 120.72C84.7892 120.674 87.285 120.511 89.2232 119.425C89.405 119.325 89.5247 119.137 89.5462 118.928C89.6347 118.15 89.6898 116.039 88.8379 114.521L88.412 118.657L85.5573 119.682L78.5559 120.165L75.5816 119.954L72.155 119.44L70.9538 118.746L71.6453 116.001L71.8559 115.155H71.8535Z" fill="black"/>
<path d="M123.742 96.0873C123.575 94.7761 122.933 92.7444 122.18 91.6589C119.928 88.4096 117.509 89.2165 117.509 89.2165C115.099 89.7305 115.494 93.7914 115.494 93.7914C115.958 99.8913 108.5 100.703 108.5 100.703C99.8976 102.069 92.7669 93.6666 92.7669 93.6666L93.334 94.7304C93.0301 94.3582 92.7286 93.9692 92.4391 93.5537L91.2618 92.6123L92.4438 95.8135C92.4438 95.8135 92.5754 96.0177 92.8411 96.3563L92.2692 94.973C92.2692 94.973 96.952 101.757 106.408 102.286C106.408 102.286 111.441 102.382 114.63 99.4662C115.528 98.6449 116.155 97.5666 116.473 96.3899C116.736 95.4149 116.982 94.0076 116.956 92.1896C116.951 91.8294 117.071 91.4692 117.327 91.2194C117.392 91.157 117.466 91.1017 117.55 91.0537C117.971 90.6671 118.708 90.5614 119.186 90.9192C120.591 91.9687 121.443 93.4841 121.828 95.0787C122.165 96.4715 122.436 99.4638 122.184 100.874C122.132 101.174 122.067 101.464 121.998 101.748C121.223 104.634 116.87 113.335 100.785 112.468C100.785 112.468 95.2028 112.269 91.1493 110.367L89.4839 111.685L88.967 111.527C97.0477 115.336 108.354 113.623 108.354 113.623C123.654 111.296 123.943 100.035 123.958 99.5623C123.984 98.3856 123.874 97.1368 123.74 96.0849L123.742 96.0873Z" fill="black"/>
<path d="M148 28H159.116C174.032 28 181.633 36.7279 181.633 49.1798C181.633 61.6316 173.469 70.3595 160.668 70.3595H159.965V102.711H148.006V28H148ZM169.25 49.1798C169.25 42.6629 166.298 37.6589 160.807 37.6589H159.965V60.7006H160.668C166.298 60.7006 169.25 55.6966 169.25 49.1798Z" fill="white"/>
<path d="M185.148 73.0362C185.148 52.0892 192.325 42.5466 202.459 42.5466C216.108 42.5466 219.769 59.4206 219.205 76.9928H197.252C197.676 88.6301 199.786 93.5177 202.459 93.5177C204.289 93.5177 206.119 90.8411 206.962 84.557H218.502C216.108 97.358 210.059 103.293 202.459 103.293C192.331 103.293 185.148 93.9832 185.148 73.0362ZM207.665 68.9632C207.665 59.3043 205.416 52.3219 202.459 52.3219C199.786 52.3219 197.676 57.2096 197.252 68.9632H207.665Z" fill="white"/>
<path d="M228.067 43.1285H240.025V46.736L239.886 48.8307C241.431 45.3396 244.813 42.5466 249.032 42.5466C258.039 42.5466 263.106 53.8348 263.106 73.0362C263.106 92.2376 258.323 103.293 249.032 103.293C244.529 103.293 241.431 100.5 239.886 97.0089L240.025 99.1036V116.909H228.067V43.1285ZM250.862 73.0362C250.862 59.537 248.468 52.3219 245.377 52.3219C242.286 52.3219 239.892 58.8388 239.892 73.0362C239.892 87.2336 242.425 93.7504 245.377 93.7504C248.329 93.7504 250.862 86.5354 250.862 73.0362Z" fill="white"/>
<path fill-rule="evenodd" clip-rule="evenodd" d="M284.742 43.62H272V103.286H284V70.549C284 56.5 288 53.416 290.445 53.416C292.816 53.416 296.573 55.4008 297.5 63H308.5C306.903 48.9812 302.157 43 294.34 43C289.844 43 286.241 45.9761 284.594 49.696L284.742 47.464V43.62Z" fill="white"/>
</svg>
